<svg viewBox="0 0 20 20" fill="none"
    xmlns="http://www.w3.org/2000/svg" size="20" class="css-bl1iat">
    <path d="M6.88 12.2c.186.64.476 1.156.87 1.549.393.393.903.663 1.53.81v.34c0 .187.07.35.21.49.14.14.303.21.49.21.186 0 .35-.07.49-.21.14-.14.21-.303.21-.49v-.3a3.64 3.64 0 0 0 1.72-.78c.48-.4.72-.993.72-1.78 0-.56-.16-1.073-.48-1.54-.32-.466-.96-.873-1.92-1.22-.8-.266-1.354-.5-1.66-.7-.307-.2-.46-.473-.46-.82 0-.346.123-.62.37-.82.246-.2.603-.3 1.07-.3.426 0 .76.104 1 .31.24.207.413.464.52.77l1.28-.52a2.679 2.679 0 0 0-.81-1.22c-.394-.346-.83-.54-1.31-.58v-.3c0-.186-.07-.35-.21-.49a.672.672 0 0 0-.49-.21c-.187 0-.35.07-.49.21a.672.672 0 0 0-.21.49v.3c-.667.147-1.187.44-1.56.88-.374.44-.56.934-.56 1.48 0 .627.183 1.134.55 1.52.366.387.943.72 1.73 1 .84.307 1.423.58 1.75.82.326.24.49.553.49.94 0 .44-.157.764-.47.97-.314.207-.69.31-1.13.31-.44 0-.83-.137-1.17-.41-.34-.273-.59-.683-.75-1.23l-1.32.52ZM10 17.998a7.789 7.789 0 0 1-3.12-.63 8.078 8.078 0 0 1-2.54-1.71 8.08 8.08 0 0 1-1.71-2.54A7.79 7.79 0 0 1 2 10c0-1.106.21-2.146.63-3.12.42-.973.99-1.82 1.71-2.54a8.078 8.078 0 0 1 2.54-1.71A7.79 7.79 0 0 1 10 2.001a7.79 7.79 0 0 1 3.12.63c.972.42 1.819.99 2.539 1.71.72.72 1.29 1.566 1.71 2.54.42.973.63 2.013.63 3.12a7.79 7.79 0 0 1-.63 3.12c-.42.972-.99 1.819-1.71 2.539a8.079 8.079 0 0 1-2.54 1.71 7.79 7.79 0 0 1-3.12.63Zm0-1.6c1.786 0 3.3-.62 4.539-1.86 1.24-1.24 1.86-2.753 1.86-4.54 0-1.786-.62-3.3-1.86-4.54-1.24-1.24-2.753-1.86-4.54-1.86-1.786 0-3.3.62-4.54 1.86C4.22 6.7 3.6 8.214 3.6 10c0 1.787.62 3.3 1.86 4.54 1.24 1.24 2.754 1.86 4.54 1.86Z" fill="#9CA3AF"></path>
</svg>