<svg xmlns="http://www.w3.org/2000/svg" viewBox="0 0 40 40" fill="none" className="size-10 text-[#101010]">
    <g clipPath="url(#clip0_2650_21315)">
        <path d="M6.66675 26.6666L16.6667 15L25.0001 23.3333L33.3334 13.3333" stroke="#101010" strokeWidth="2" strokeLinecap="round" strokeLinejoin="round"></path>
        <path d="M23.3333 23.3333C23.3333 23.7754 23.5088 24.1993 23.8214 24.5118C24.134 24.8244 24.5579 25 24.9999 25C25.4419 25 25.8659 24.8244 26.1784 24.5118C26.491 24.1993 26.6666 23.7754 26.6666 23.3333C26.6666 22.8913 26.491 22.4674 26.1784 22.1548C25.8659 21.8423 25.4419 21.6667 24.9999 21.6667C24.5579 21.6667 24.134 21.8423 23.8214 22.1548C23.5088 22.4674 23.3333 22.8913 23.3333 23.3333Z" stroke="#101010" strokeWidth="2" strokeLinecap="round" strokeLinejoin="round"></path>
        <path d="M15 15C15 15.442 15.1756 15.8659 15.4882 16.1785C15.8007 16.4911 16.2246 16.6666 16.6667 16.6666C17.1087 16.6666 17.5326 16.4911 17.8452 16.1785C18.1577 15.8659 18.3333 15.442 18.3333 15C18.3333 14.558 18.1577 14.134 17.8452 13.8215C17.5326 13.5089 17.1087 13.3333 16.6667 13.3333C16.2246 13.3333 15.8007 13.5089 15.4882 13.8215C15.1756 14.134 15 14.558 15 15Z" stroke="#101010" strokeWidth="2" strokeLinecap="round" strokeLinejoin="round"></path>
        <path d="M5 26.6667C5 27.1087 5.17559 27.5326 5.48816 27.8452C5.80072 28.1577 6.22464 28.3333 6.66667 28.3333C7.10869 28.3333 7.53262 28.1577 7.84518 27.8452C8.15774 27.5326 8.33333 27.1087 8.33333 26.6667C8.33333 26.2246 8.15774 25.8007 7.84518 25.4882C7.53262 25.1756 7.10869 25 6.66667 25C6.22464 25 5.80072 25.1756 5.48816 25.4882C5.17559 25.8007 5 26.2246 5 26.6667Z" stroke="#101010" strokeWidth="2" strokeLinecap="round" strokeLinejoin="round"></path>
        <path d="M31.6667 13.3334C31.6667 13.7754 31.8423 14.1993 32.1549 14.5119C32.4675 14.8244 32.8914 15 33.3334 15C33.7754 15 34.1994 14.8244 34.5119 14.5119C34.8245 14.1993 35.0001 13.7754 35.0001 13.3334C35.0001 12.8913 34.8245 12.4674 34.5119 12.1548C34.1994 11.8423 33.7754 11.6667 33.3334 11.6667C32.8914 11.6667 32.4675 11.8423 32.1549 12.1548C31.8423 12.4674 31.6667 12.8913 31.6667 13.3334Z" stroke="#101010" strokeWidth="2" strokeLinecap="round" strokeLinejoin="round"></path>
    </g>
    <defs>
        <clipPath id="clip0_2650_21315">
            <rect width="40" height="40" fill="white"></rect>
        </clipPath>
    </defs>
</svg>