<svg viewBox="0 0 12 14" fill="none"
    xmlns="http://www.w3.org/2000/svg" size="16" class="css-in2lde">
    <path fill-rule="evenodd" clip-rule="evenodd" d="M9.804 4.444H9.17v-1.27A3.173 3.173 0 0 0 6 0a3.173 3.173 0 0 0-3.17 3.174v1.27h-.633c-.698 0-1.268.571-1.268 1.27v6.348c0 .699.57 1.27 1.268 1.27h7.607c.697 0 1.268-.572 1.268-1.27V5.714c0-.699-.571-1.27-1.268-1.27Zm-5.706-1.27a1.9 1.9 0 1 1 3.804 0v1.27H4.098v-1.27Zm5.707 8.888H2.198V5.714h7.607v6.348ZM6 10.158c.698 0 1.268-.572 1.268-1.27 0-.698-.57-1.27-1.268-1.27-.697 0-1.268.572-1.268 1.27 0 .698.57 1.27 1.268 1.27Z" fill="#9CA3AF"></path>
</svg>