<svg xmlns="http://www.w3.org/2000/svg" viewBox="0 0 147 32" fill="none">
    <path d="M19.1016 20.585V26.8104C19.1016 27.1379 19.3684 27.4032 19.6976 27.4032H25.9574C26.2867 27.4032 26.5535 27.1379 26.5535 26.8104V20.585C26.5535 20.2575 26.2867 19.9922 25.9574 19.9922H19.6976C19.3684 19.9922 19.1016 20.2575 19.1016 20.585ZM23.7033 25.9757L23.0197 24.8413C22.9308 24.6936 22.7155 24.6922 22.6243 24.8383L21.9158 25.9794C21.857 26.0736 21.7534 26.1314 21.6416 26.1314H20.6031C20.5002 26.1314 20.4392 26.0174 20.4958 25.9326L21.9106 23.8158C21.9841 23.7061 21.9849 23.5636 21.9121 23.4532L20.6053 21.4636C20.5495 21.3781 20.6112 21.2655 20.7134 21.2655H21.7901C21.9033 21.2655 22.0077 21.324 22.0657 21.4205L22.6324 22.3546C22.7206 22.5008 22.933 22.5037 23.0256 22.3597L23.6349 21.4131C23.6944 21.321 23.7966 21.2655 23.9061 21.2655H24.9439C25.0475 21.2655 25.1085 21.381 25.0505 21.4665L23.729 23.3794C23.6525 23.4898 23.6511 23.6345 23.7246 23.7463L25.1637 25.934C25.2195 26.0196 25.1585 26.1321 25.0556 26.1321H23.9803C23.8672 26.1321 23.7621 26.0729 23.704 25.9764L23.7033 25.9757Z" fill="white"></path>
    <path d="M25.8036 31.9993H5.5682C2.49819 31.9993 0 29.5155 0 26.4616V5.53763C0 2.48375 2.49746 0 5.5682 0H25.8044C28.8744 0 31.3726 2.48375 31.3726 5.53763V26.4624C31.3726 29.5155 28.8751 32 25.8044 32L25.8036 31.9993ZM5.5682 2.26081C3.75133 2.26081 2.27329 3.73074 2.27329 5.53763V26.4624C2.27329 28.2693 3.75133 29.7392 5.5682 29.7392H25.8044C27.6212 29.7392 29.0993 28.2693 29.0993 26.4624V5.53763C29.0993 3.73074 27.6212 2.26081 25.8044 2.26081H5.5682Z" fill="white"></path>
    <path d="M11.7783 27.4031H5.46487C4.95259 27.4031 4.64464 26.8366 4.92613 26.4104L13.069 14.0677L19.0598 4.98794C19.1788 4.8074 19.3817 4.69849 19.5985 4.69849H25.9076C26.4198 4.69849 26.7278 5.26497 26.4463 5.69111L12.3163 27.1136C12.1973 27.2942 11.9944 27.4031 11.7776 27.4031H11.7783Z" fill="white"></path>
</svg>