<svg class="logo-svg-container" width="100%" height="100%" viewBox="0 0 127 24" fill="none"
    xmlns="http://www.w3.org/2000/svg">
    <path d="M103.808 8.71214C103.808 5.33924 101.401 2.77059 96.8345 2.77059H87.7983V23.9681H91.1429V15.3658H97.2073C98.8938 15.3658 100.051 16.0142 100.051 17.9663V23.9717H103.428V17.6581C103.428 14.9655 101.894 13.8813 99.9909 13.7892V13.6368C101.645 13.1408 103.804 11.8725 103.804 8.71568L103.808 8.71214ZM96.4297 12.581H91.1465L91.1784 5.49513H96.3374C99.1814 5.49513 100.371 7.0434 100.371 8.96014C100.371 10.8769 99.121 12.581 96.4333 12.581H96.4297ZM13.6661 2.36315L11.2801 0L8.87996 2.37733L11.2695 4.74048L13.6697 2.36315H13.6661ZM33.0309 2.77059L24.4669 23.9681H28.0636L30.3147 18.3667H39.5355L41.7546 23.9681H45.4117L36.8761 2.77059H33.0309ZM31.1562 15.6457L34.8452 6.26749H35.0014L38.6266 15.6457H31.1562ZM22.5425 4.94597L20.1707 2.54384L13.4779 9.01683C12.2601 10.1931 10.2824 10.1931 9.06814 9.01683L2.37178 2.5403L0 4.94597V23.9717H3.38014V8.21258L6.69281 11.4154C7.95326 12.6377 9.61492 13.2471 11.273 13.2471C12.9311 13.2471 14.5893 12.6377 15.8533 11.4154L19.102 8.27281V23.9681H22.5461V4.94597H22.5425ZM117.864 2.77414H114.019L105.455 23.9717H109.052L111.303 18.3702H120.524L122.743 23.9717H126.4L117.868 2.77414H117.864ZM112.145 15.6492L115.834 6.27104H115.99L119.615 15.6492H112.145ZM62.1242 19.0221H61.968L51.153 2.77059H47.3716V23.9681H50.7482V7.90788H50.9044L61.5632 23.9681L65.5008 24V2.77059H62.1242V19.0186V19.0221ZM67.7092 5.53056H74.995V23.9752H78.2792L78.3112 5.53056H85.5934V2.77059H67.7128V5.52347L67.7092 5.53056Z" fill="url(#paint0_linear_217_8936)"></path>
    <defs>
        <linearGradient id="paint0_linear_217_8936" x1="97.527" y1="1.84469" x2="62.3271" y2="54.1664" gradientUnits="userSpaceOnUse">
            <stop offset="0.372396" stop-color="#FF97D6"></stop>
            <stop offset="0.802083" stop-color="#F8B994"></stop>
        </linearGradient>
    </defs>
</svg>