<svg xmlns="http://www.w3.org/2000/svg" enable-background="new 0 0 1920 1080" viewBox="0 0 1920 1080" id="salary-day"><path fill="#2a94f4" d="M1678 198.3c0 390.4-316.5 706.9-706.9 706.9S264.2 588.7 264.2 198.3s316.5-43.2 706.9-43.2S1678-192 1678 198.3z" opacity=".1"></path><ellipse cx="952" cy="912.2" fill="#2a94f4" opacity=".1" rx="798.1" ry="157.4"></ellipse><path fill="#d3d3d3" d="M1478.4 891.9H518.3c-23.6 0-43.8-18.1-45-40.4l-39.8-706.7c-1.3-22.3 16.9-40.4 40.5-40.4h960.1c23.6 0 43.7 18.1 45 40.4l39.8 706.7c1.2 22.3-16.9 40.4-40.5 40.4z"></path><path fill="#d3d3d3" d="M1485.3 102.3c-3.2 28.6-30.3 51.8-60.4 51.8-3.3 0-6.4-.3-9.4-.8 26.1-4.3 48.1-25.5 50.9-51h18.9z"></path><path fill="#f7f7f7" d="M1355.1 894.6h-966c-23.7 0-41-18.2-38.5-40.7l79-711c2.5-22.5 23.8-40.7 47.5-40.7h966c23.7 0 41 18.2 38.5 40.7l-79 711c-2.5 22.5-23.8 40.7-47.5 40.7z"></path><path fill="#0b4870" d="M552.6 161.2c1.1-10-6.6-18.1-17.1-18.1-10.6 0-20 8.1-21.1 18.1-1.1 10 6.6 18.1 17.1 18.1 10.5 0 20-8.1 21.1-18.1zM765.8 161.2c1.1-10-6.6-18.1-17.1-18.1s-20 8.1-21.1 18.1c-1.1 10 6.6 18.1 17.1 18.1 10.5 0 20-8.1 21.1-18.1zM979.1 161.2c1.1-10-6.6-18.1-17.1-18.1s-20 8.1-21.1 18.1c-1.1 10 6.6 18.1 17.1 18.1 10.5 0 20-8.1 21.1-18.1zM1192.3 161.2c1.1-10-6.6-18.1-17.1-18.1-10.6 0-20 8.1-21.2 18.1-1.1 10 6.6 18.1 17.1 18.1 10.6 0 20.1-8.1 21.2-18.1zM1405.5 161.2c1.1-10-6.6-18.1-17.1-18.1-10.6 0-20 8.1-21.1 18.1-1.1 10 6.6 18.1 17.1 18.1 10.6 0 20-8.1 21.1-18.1z"></path><path fill="#ffbe55" d="M529.6 171c-34.5-5.9-56.9-34.8-53.1-68.7 4.3-38.5 40.8-69.8 81.5-69.8s70.3 31.3 66 69.8h-19c3.2-28.6-18.8-51.8-49-51.8s-57.4 23.3-60.5 51.8c-2.8 25.2 13.8 46.6 39.5 51 0 0 1.7 3.8-.6 10-2.3 6.3-4.8 7.7-4.8 7.7zM745 171c-34.6-5.9-56.9-34.8-53.1-68.7 4.3-38.5 40.8-69.8 81.5-69.8s70.3 31.3 66 69.8h-18.9c3.2-28.6-18.8-51.8-49-51.8s-57.4 23.3-60.5 51.8c-2.8 25.2 13.8 46.6 39.5 51 0 0 1.7 3.8-.6 10-2.5 6.3-4.9 7.7-4.9 7.7zM960.3 171c-34.5-5.9-56.9-34.8-53.1-68.7 4.3-38.5 40.8-69.8 81.5-69.8s70.3 31.3 66 69.8h-19c3.2-28.6-18.8-51.8-49-51.8s-57.4 23.3-60.5 51.8c-2.8 25.2 13.8 46.6 39.5 51 0 0 1.7 3.8-.6 10-2.4 6.3-4.8 7.7-4.8 7.7zM1175.6 171c-34.5-5.9-56.9-34.8-53.1-68.7 4.3-38.5 40.8-69.8 81.5-69.8s70.3 31.3 66 69.8h-19c3.2-28.6-18.8-51.8-49-51.8s-57.4 23.3-60.5 51.8c-2.8 25.2 13.8 46.6 39.5 51 0 0 1.7 3.8-.6 10-2.4 6.3-4.8 7.7-4.8 7.7zM1485.3 102.3h-19c.2-1.6.3-3.1.3-4.7 0-2.6-.1-5-.5-7.4-.2-1.3-.4-2.6-.7-3.8-.1-.8-.3-1.5-.6-2.2-4.7-16.8-18.9-29.4-37.5-32.9-3.2-.6-6.6-.9-10.1-.9-30.2 0-57.3 23.2-60.5 51.8-2.8 25.2 13.8 46.6 39.5 51 0 0 1.7 3.8-.6 10s-4.7 7.6-4.7 7.6c-34.6-5.9-56.9-34.8-53.2-68.7 4.3-38.5 40.8-69.7 81.5-69.7 39.7 0 68.8 29.8 66.2 66.9.1 1.1 0 2-.1 3z"></path><path fill="#0b4870" d="M595.2 829.3c-1 0-1.7-.8-1.6-1.7l67.3-605.8c.1-.9 1-1.7 2-1.7s1.7.8 1.6 1.7l-67.3 605.8c-.1.9-1 1.7-2 1.7zM784 829.3c-1 0-1.7-.8-1.6-1.7l67.3-605.8c.1-.9 1-1.7 2-1.7s1.7.8 1.6 1.7L786 827.6c-.2.9-1.1 1.7-2 1.7zM972.7 829.3c-1 0-1.7-.8-1.6-1.7l67.3-605.8c.1-.9 1-1.7 2-1.7s1.7.8 1.6 1.7l-67.3 605.8c-.2.9-1 1.7-2 1.7zM1161.4 829.3c-1 0-1.7-.8-1.6-1.7l67.3-605.8c.1-.9 1-1.7 2-1.7s1.7.8 1.6 1.7l-67.3 605.8c-.1.9-1 1.7-2 1.7z"></path><path fill="#0b4870" d="M1379 345.9H485c-1 0-1.7-.8-1.6-1.7.1-.9 1-1.7 2-1.7h894c1 0 1.7.8 1.6 1.7-.1.9-1 1.7-2 1.7zM1359 526.3H465c-1 0-1.7-.8-1.6-1.7.1-.9 1-1.7 2-1.7h894c1 0 1.7.8 1.6 1.7-.2 1-1.1 1.7-2 1.7zM1338.9 706.8h-894c-1 0-1.7-.8-1.6-1.7.1-.9 1-1.7 2-1.7h894c1 0 1.7.8 1.6 1.7-.1.9-1 1.7-2 1.7z"></path><path fill="#ffbe55" d="M521.2 677.2c-37.9 0-65.5-29.2-61.5-65s38-65 75.9-65c37.9 0 65.5 29.2 61.5 65-3.9 35.8-38 65-75.9 65z"></path><path fill="#ffc910" d="M471.9 969.9c-.4-12.1-1-28.2-1.5-40.3.3 8.3 1.1 30.8 1.5 39.4v.9z"></path><path fill="#ffbe55" d="M790 912.6c.5 14.9 1.1 29.7 1.6 44.6.4 11.4-13.8 23.4-43.3 33.7-63.6 22.3-174.1 28.4-246.8 13.6-39-7.9-59.2-20.3-59.7-33.5l-1.6-44.6c.5 13.2 20.7 25.5 59.7 33.5 72.7 14.8 183.2 8.7 246.8-13.6 29.5-10.3 43.8-22.3 43.3-33.7z"></path><g opacity=".06"><path fill="#231f20" d="M790 912.7c.5 14.9 1.1 29.7 1.6 44.6.4 11.4-13.8 23.4-43.3 33.7-63.6 22.3-174.1 28.4-246.8 13.6-39-7.9-59.2-20.3-59.7-33.5l-1.6-44.6c.5 13.2 20.7 25.5 59.7 33.5 72.7 14.8 183.2 8.7 246.8-13.6 29.5-10.4 43.8-22.4 43.3-33.7z"></path></g><path fill="#ffbe55" d="M730.3 879.2c72.7 14.8 80 44.9 16.4 67.2-63.6 22.3-174.1 28.4-246.8 13.6-72.7-14.8-80-44.9-16.4-67.2 63.7-22.3 174.2-28.4 246.8-13.6zM519.7 953c60.2 12.3 151.7 7.2 204.4-11.3 52.7-18.5 46.6-43.4-13.6-55.6-60.2-12.2-151.7-7.2-204.4 11.3-52.7 18.5-46.6 43.4 13.6 55.6z"></path><g opacity=".29"><path fill="#fff" d="M730.3 879.3c72.7 14.8 80 44.9 16.4 67.2-63.6 22.3-174.1 28.4-246.8 13.6-72.7-14.8-80-44.9-16.4-67.2 63.7-22.3 174.2-28.4 246.8-13.6zm-210.6 73.8c60.2 12.3 151.7 7.2 204.4-11.3 52.7-18.5 46.6-43.4-13.6-55.6-60.2-12.2-151.7-7.2-204.4 11.3-52.7 18.5-46.6 43.4 13.6 55.6z"></path></g><path fill="#ffbe55" d="M710.6 886.1c60.2 12.3 66.3 37.2 13.6 55.6-52.7 18.5-144.2 23.5-204.4 11.3-60.2-12.3-66.3-37.2-13.6-55.6 52.6-18.5 144.2-23.6 204.4-11.3z"></path><path fill="#231f20" d="M506.1 902.9c52.7-18.5 144.2-23.5 204.4-11.3 30 6.1 46.5 15.3 49.1 25.3 3-12.1-13.7-23.7-49.1-30.9-60.2-12.2-151.7-7.2-204.4 11.3-26.5 9.3-38.1 20.2-35.5 30.3 2.2-8.4 13.9-17.1 35.5-24.7z" opacity=".11"></path><g opacity=".05"><path fill="#231f20" d="m685.9 900-16 5.6c6.4 1.8 9.4 4.1 9 6.7-.3 2.6-4.1 5.3-11.1 8l-16.4-3.3c3.9-1.6 5.7-3.1 5.2-4.6-.5-1.5-3.2-2.7-8-3.7-5.2-1.1-10.7-1.4-16.7-1.1-5.9.4-11.2 1.3-15.8 3-1.7.6-3 1.2-3.8 1.8-.9.6-1.3 1.2-1.3 1.9-.1 1.3 2.9 2.9 8.9 5 3.6 1.2 6.2 2.2 7.8 2.9 5.6 2.6 8.1 5.1 7.3 7.7-.7 2.6-4.5 5.1-11.4 7.5-8.7 3.1-18.7 5.1-30 6.2-11.2 1.1-21.5 1-30.7-.4l-19.2 6.7-15.3-3.1 18.4-6.5c-8.1-2.3-12-4.9-11.6-8 .3-3.1 4.9-6.2 13.7-9.3l15.8 3.2c-5.6 2.2-8.2 4.1-7.7 5.9.4 1.7 3.9 3.3 10.5 4.6 6 1.2 12.4 1.6 19.1 1.2 6.8-.4 12.8-1.5 18.1-3.4 1.9-.7 3.4-1.3 4.6-2 1.2-.6 1.9-1.3 2.3-1.8 1.2-1.9-1.6-4-8.2-6.3-1.1-.4-1.9-.7-2.4-.9-8.1-2.9-12.3-5.7-12.7-8.3-.4-2.6 3-5.2 10.3-7.7 7.9-2.8 16.9-4.6 26.9-5.5 10-.9 19.8-.7 29.3.5l15.8-5.5 15.3 3z"></path></g><g opacity=".43"><path fill="#fff" d="m685.9 893.7-16 5.6c6.4 1.8 9.4 4.1 9 6.7-.3 2.6-4.1 5.3-11.1 8l-16.4-3.3c3.9-1.6 5.7-3.1 5.2-4.6-.5-1.5-3.2-2.8-8-3.7-5.2-1.1-10.7-1.4-16.7-1.1-5.9.4-11.2 1.3-15.8 3-1.7.6-3 1.2-3.8 1.8-.9.6-1.3 1.2-1.3 1.9-.1 1.3 2.9 2.9 8.9 5 3.6 1.2 6.2 2.2 7.8 2.9 5.6 2.6 8.1 5.1 7.3 7.7-.7 2.6-4.5 5.1-11.4 7.5-8.7 3.1-18.7 5.1-30 6.2-11.2 1.1-21.5 1-30.7-.4l-19.2 6.7-15.3-3.1 18.4-6.5c-8.1-2.3-12-4.9-11.6-8 .3-3.1 4.9-6.2 13.7-9.3l15.8 3.2c-5.6 2.2-8.2 4.1-7.7 5.9.4 1.7 3.9 3.3 10.5 4.6 6 1.2 12.4 1.6 19.1 1.2 6.8-.4 12.8-1.5 18.1-3.4 1.9-.7 3.4-1.3 4.6-2 1.2-.6 1.9-1.3 2.3-1.8 1.2-1.9-1.6-4-8.2-6.3-1.1-.4-1.9-.7-2.4-.9-8.1-3-12.3-5.7-12.7-8.3-.4-2.6 3-5.2 10.3-7.7 7.9-2.8 16.9-4.6 26.9-5.5 10-.9 19.8-.7 29.3.5l15.8-5.5 15.3 3z"></path></g><path fill="#ffc910" d="M541.8 918.7c-.4-12.1-1-28.2-1.5-40.3.3 8.3 1.1 30.8 1.5 39.4v.9z"></path><path fill="#ffbe55" d="M860 861.4c.5 14.9 1.1 29.7 1.6 44.6.4 11.4-13.8 23.4-43.3 33.7-63.6 22.3-174.1 28.4-246.8 13.6-39-7.9-59.2-20.3-59.7-33.5l-1.6-44.6c.5 13.2 20.7 25.5 59.7 33.5 72.7 14.8 183.2 8.7 246.8-13.6 29.4-10.3 43.7-22.3 43.3-33.7z"></path><g opacity=".06"><path fill="#231f20" d="M860 861.4c.5 14.9 1.1 29.7 1.6 44.6.4 11.4-13.8 23.4-43.3 33.7-63.6 22.3-174.1 28.4-246.8 13.6-39-7.9-59.2-20.3-59.7-33.5l-1.6-44.6c.5 13.2 20.7 25.5 59.7 33.5 72.7 14.8 183.2 8.7 246.8-13.6 29.4-10.3 43.7-22.3 43.3-33.7z"></path></g><path fill="#ffbe55" d="M800.3 827.9c72.7 14.8 80 44.9 16.4 67.2-63.6 22.3-174.1 28.4-246.8 13.6-72.7-14.8-80-44.9-16.4-67.2 63.6-22.3 174.1-28.4 246.8-13.6zm-210.6 73.9c60.2 12.3 151.7 7.2 204.4-11.3 52.7-18.5 46.6-43.4-13.6-55.6-60.2-12.2-151.7-7.2-204.4 11.3-52.7 18.4-46.6 43.3 13.6 55.6z"></path><g opacity=".26"><path fill="#fff" d="M800.3 827.7c72.7 14.8 80 44.9 16.4 67.2-63.6 22.3-174.1 28.4-246.8 13.6-72.7-14.8-80-44.9-16.4-67.2 63.6-22.3 174.1-28.4 246.8-13.6zm-210.6 73.8c60.2 12.3 151.7 7.2 204.4-11.3 52.7-18.5 46.6-43.4-13.6-55.6-60.2-12.2-151.7-7.2-204.4 11.3-52.7 18.5-46.6 43.4 13.6 55.6z"></path></g><path fill="#ffbe55" d="M780.5 834.8c60.2 12.3 66.3 37.2 13.6 55.6-52.7 18.6-144.2 23.6-204.4 11.4-60.2-12.3-66.3-37.2-13.6-55.6 52.7-18.6 144.2-23.6 204.4-11.4z"></path><path fill="#231f20" d="M576.1 851.7c52.7-18.5 144.2-23.5 204.4-11.3 30 6.1 46.5 15.3 49.1 25.3 3-12.1-13.7-23.7-49.1-30.9-60.2-12.2-151.7-7.2-204.4 11.3-26.5 9.3-38.1 20.2-35.5 30.3 2.1-8.4 13.8-17.1 35.5-24.7z" opacity=".11"></path><g opacity=".05"><path fill="#231f20" d="m755.8 848.8-16 5.6c6.4 1.8 9.4 4.1 9 6.7-.3 2.6-4.1 5.3-11.1 8l-16.4-3.3c3.9-1.6 5.7-3.1 5.2-4.6-.5-1.5-3.2-2.7-8-3.7-5.2-1.1-10.7-1.4-16.7-1.1-5.9.4-11.2 1.3-15.8 3-1.7.6-3 1.2-3.8 1.8-.9.6-1.3 1.2-1.3 1.9-.1 1.3 2.9 2.9 8.9 5 3.6 1.2 6.2 2.2 7.8 2.9 5.6 2.6 8.1 5.1 7.3 7.7-.7 2.6-4.5 5.1-11.4 7.5-8.7 3.1-18.7 5.1-30 6.2-11.2 1.1-21.5 1-30.7-.4l-19.2 6.7-15.3-3.1 18.4-6.5c-8.1-2.3-12-4.9-11.6-8 .3-3.1 4.9-6.2 13.7-9.3l15.8 3.2c-5.6 2.2-8.2 4.1-7.7 5.9.4 1.7 3.9 3.3 10.5 4.6 6 1.2 12.4 1.6 19.1 1.2 6.8-.4 12.8-1.5 18.1-3.4 1.9-.7 3.4-1.3 4.6-2 1.2-.6 1.9-1.3 2.3-1.8 1.2-1.9-1.6-4-8.2-6.3-1.1-.4-1.9-.7-2.4-.9-8.1-2.9-12.3-5.7-12.7-8.3-.4-2.6 3-5.2 10.3-7.7 7.9-2.8 16.9-4.6 26.9-5.5 10-.9 19.8-.7 29.3.5l15.8-5.5 15.3 3z"></path></g><g opacity=".43"><path fill="#fff" d="m755.8 842.5-16 5.6c6.4 1.8 9.4 4.1 9 6.7-.3 2.6-4.1 5.3-11.1 8l-16.4-3.3c3.9-1.6 5.7-3.1 5.2-4.6-.5-1.5-3.2-2.8-8-3.7-5.2-1.1-10.7-1.4-16.7-1.1-5.9.4-11.2 1.3-15.8 3-1.7.6-3 1.2-3.8 1.8-.9.6-1.3 1.2-1.3 1.9-.1 1.3 2.9 2.9 8.9 5 3.6 1.2 6.2 2.2 7.8 2.9 5.6 2.6 8.1 5.1 7.3 7.7-.7 2.6-4.5 5.1-11.4 7.5-8.7 3.1-18.7 5.1-30 6.2-11.2 1.1-21.5 1-30.7-.4l-19.2 6.7-15.3-3.1 18.4-6.5c-8.1-2.3-12-4.9-11.6-8 .3-3.1 4.9-6.2 13.7-9.3l15.8 3.2c-5.6 2.2-8.2 4.1-7.7 5.9.4 1.7 3.9 3.3 10.5 4.6 6 1.2 12.4 1.6 19.1 1.2 6.8-.4 12.8-1.5 18.1-3.4 1.9-.7 3.4-1.3 4.6-2 1.2-.6 1.9-1.3 2.3-1.8 1.2-1.9-1.6-4-8.2-6.3-1.1-.4-1.9-.7-2.4-.9-8.1-3-12.3-5.7-12.7-8.3-.4-2.6 3-5.2 10.3-7.7 7.9-2.8 16.9-4.6 26.9-5.5 10-.9 19.8-.7 29.3.5l15.8-5.5 15.3 3z"></path></g><path fill="#ffc910" d="M1048.4 934.4c-.4-12.1-1-28.2-1.5-40.3.3 8.3 1.1 30.8 1.5 39.4-.1.3-.1.6 0 .9z"></path><path fill="#ffbe55" d="M1366.5 877.1c.5 14.9 1.1 29.7 1.6 44.6.4 11.4-13.8 23.4-43.3 33.7-63.6 22.3-174.1 28.4-246.8 13.6-39-7.9-59.2-20.3-59.7-33.5l-1.6-44.6c.5 13.2 20.7 25.5 59.7 33.5 72.7 14.8 183.2 8.7 246.8-13.6 29.5-10.3 43.7-22.3 43.3-33.7z"></path><g opacity=".06"><path fill="#231f20" d="M1366.5 877.2c.5 14.9 1.1 29.7 1.6 44.6.4 11.4-13.8 23.4-43.3 33.7-63.6 22.3-174.1 28.4-246.8 13.6-39-7.9-59.2-20.3-59.7-33.5l-1.6-44.6c.5 13.2 20.7 25.5 59.7 33.5 72.7 14.8 183.2 8.7 246.8-13.6 29.5-10.4 43.7-22.4 43.3-33.7z"></path></g><path fill="#ffbe55" d="M1306.8 843.7c72.7 14.8 80 44.9 16.4 67.2-63.6 22.3-174.1 28.4-246.8 13.6-72.7-14.8-80-44.9-16.4-67.2 63.6-22.3 174.1-28.4 246.8-13.6zm-210.6 73.8c60.2 12.3 151.7 7.2 204.4-11.3 52.7-18.5 46.6-43.4-13.6-55.6-60.2-12.2-151.7-7.2-204.4 11.3-52.7 18.4-46.6 43.4 13.6 55.6z"></path><path fill="#fff" d="M1306.8 843.7c72.7 14.8 80 44.9 16.4 67.2-63.6 22.3-174.1 28.4-246.8 13.6-72.7-14.8-80-44.9-16.4-67.2 63.6-22.3 174.1-28.4 246.8-13.6zm-210.6 73.8c60.2 12.3 151.7 7.2 204.4-11.3 52.7-18.5 46.6-43.4-13.6-55.6-60.2-12.2-151.7-7.2-204.4 11.3-52.7 18.4-46.6 43.4 13.6 55.6z" opacity=".24"></path><path fill="#ffbe55" d="M1287 850.6c60.2 12.3 66.3 37.2 13.6 55.6-52.7 18.5-144.2 23.5-204.4 11.3-60.2-12.3-66.3-37.2-13.6-55.6 52.7-18.5 144.2-23.6 204.4-11.3z"></path><path fill="#231f20" d="M1082.6 867.4c52.7-18.5 144.2-23.5 204.4-11.3 30 6.1 46.5 15.3 49.1 25.3 3-12.1-13.7-23.7-49.1-30.9-60.2-12.2-151.7-7.2-204.4 11.3-26.5 9.3-38.1 20.2-35.5 30.3 2.1-8.4 13.8-17.1 35.5-24.7z" opacity=".11"></path><g opacity=".05"><path fill="#231f20" d="m1262.3 864.5-16 5.6c6.4 1.8 9.4 4.1 9 6.7-.3 2.6-4.1 5.3-11.1 8l-16.4-3.3c3.9-1.6 5.7-3.1 5.2-4.6-.5-1.5-3.2-2.7-8-3.7-5.2-1.1-10.7-1.4-16.7-1.1-5.9.4-11.2 1.3-15.8 3-1.7.6-3 1.2-3.8 1.8-.9.6-1.3 1.2-1.3 1.9-.1 1.3 2.9 2.9 8.9 5 3.6 1.2 6.2 2.2 7.8 2.9 5.6 2.6 8.1 5.1 7.3 7.7-.7 2.6-4.5 5.1-11.4 7.5-8.7 3.1-18.7 5.1-30 6.2-11.2 1.1-21.5 1-30.7-.4l-19.2 6.7-15.3-3.1 18.4-6.5c-8.1-2.3-12-4.9-11.6-8 .3-3.1 4.9-6.2 13.7-9.3l15.8 3.2c-5.6 2.2-8.2 4.1-7.7 5.9.4 1.7 3.9 3.3 10.5 4.6 6 1.2 12.4 1.6 19.1 1.2 6.8-.4 12.8-1.5 18.1-3.4 1.9-.7 3.4-1.3 4.6-2 1.2-.6 1.9-1.3 2.3-1.8 1.2-1.9-1.6-4-8.2-6.3-1.1-.4-1.9-.7-2.4-.9-8.1-2.9-12.3-5.7-12.7-8.3-.4-2.6 3-5.2 10.3-7.7 7.9-2.8 16.9-4.6 26.9-5.5 10-.9 19.8-.7 29.3.5l15.8-5.5 15.3 3z"></path></g><g opacity=".43"><path fill="#fff" d="m1262.3 858.2-16 5.6c6.4 1.8 9.4 4.1 9 6.7-.3 2.6-4.1 5.3-11.1 8l-16.4-3.3c3.9-1.6 5.7-3.1 5.2-4.6-.5-1.5-3.2-2.8-8-3.7-5.2-1.1-10.7-1.4-16.7-1.1-5.9.4-11.2 1.3-15.8 3-1.7.6-3 1.2-3.8 1.8-.9.6-1.3 1.2-1.3 1.9-.1 1.3 2.9 2.9 8.9 5 3.6 1.2 6.2 2.2 7.8 2.9 5.6 2.6 8.1 5.1 7.3 7.7-.7 2.6-4.5 5.1-11.4 7.5-8.7 3.1-18.7 5.1-30 6.2-11.2 1.1-21.5 1-30.7-.4l-19.2 6.7-15.3-3.1 18.4-6.5c-8.1-2.3-12-4.9-11.6-8 .3-3.1 4.9-6.2 13.7-9.3l15.8 3.2c-5.6 2.2-8.2 4.1-7.7 5.9.4 1.7 3.9 3.3 10.5 4.6 6 1.2 12.4 1.6 19.1 1.2 6.8-.4 12.8-1.5 18.1-3.4 1.9-.7 3.4-1.3 4.6-2 1.2-.6 1.9-1.3 2.3-1.8 1.2-1.9-1.6-4-8.2-6.3-1.1-.4-1.9-.7-2.4-.9-8.1-3-12.3-5.7-12.7-8.3-.4-2.6 3-5.2 10.3-7.7 7.9-2.8 16.9-4.6 26.9-5.5 10-.9 19.8-.7 29.3.5l15.8-5.5 15.3 3z"></path></g><path fill="#ffc910" d="M815.9 982.8c-.4-12.1-1-28.2-1.5-40.3.3 8.3 1.1 30.8 1.5 39.4v.9z"></path><path fill="#ffbe55" d="M1134.1 925.6c.5 14.9 1.1 29.7 1.6 44.6.4 11.4-13.8 23.4-43.3 33.7-63.6 22.3-174.1 28.4-246.8 13.6-39-7.9-59.2-20.3-59.7-33.5l-1.6-44.6c.5 13.2 20.7 25.5 59.7 33.5 72.7 14.8 183.2 8.7 246.8-13.6 29.5-10.4 43.7-22.3 43.3-33.7z"></path><g opacity=".06"><path fill="#231f20" d="M1134.1 925.6c.5 14.9 1.1 29.7 1.6 44.6.4 11.4-13.8 23.4-43.3 33.7-63.6 22.3-174.1 28.4-246.8 13.6-39-7.9-59.2-20.3-59.7-33.5l-1.6-44.6c.5 13.2 20.7 25.5 59.7 33.5 72.7 14.8 183.2 8.7 246.8-13.6 29.5-10.3 43.7-22.3 43.3-33.7z"></path></g><path fill="#ffbe55" d="M1074.4 892.1c72.7 14.8 80 44.9 16.4 67.2-63.6 22.3-174.1 28.4-246.8 13.6-72.7-14.8-80-44.9-16.4-67.2 63.6-22.3 174.1-28.4 246.8-13.6zM863.8 966c60.2 12.3 151.7 7.2 204.4-11.3 52.7-18.5 46.6-43.4-13.6-55.6-60.2-12.2-151.7-7.2-204.4 11.3-52.7 18.4-46.6 43.3 13.6 55.6z"></path><g opacity=".29"><path fill="#fff" d="M1074.4 891.7c72.7 14.8 80 44.9 16.4 67.2-63.6 22.3-174.1 28.4-246.8 13.6-72.7-14.8-80-44.9-16.4-67.2 63.6-22.3 174.1-28.4 246.8-13.6zm-210.6 73.8c60.2 12.3 151.7 7.2 204.4-11.3 52.7-18.5 46.6-43.4-13.6-55.6-60.2-12.2-151.7-7.2-204.4 11.3-52.7 18.4-46.6 43.4 13.6 55.6z"></path></g><path fill="#ffbe55" d="M1054.6 899c60.2 12.3 66.3 37.2 13.6 55.6-52.7 18.5-144.2 23.5-204.4 11.3-60.2-12.3-66.3-37.2-13.6-55.6 52.7-18.5 144.2-23.5 204.4-11.3z"></path><path fill="#231f20" d="M850.2 915.9c52.7-18.5 144.2-23.5 204.4-11.3 30 6.1 46.5 15.3 49.1 25.3 3-12.1-13.7-23.7-49.1-30.9-60.2-12.2-151.7-7.2-204.4 11.3-26.5 9.3-38.1 20.2-35.5 30.3 2.1-8.4 13.8-17.1 35.5-24.7z" opacity=".11"></path><g opacity=".05"><path fill="#231f20" d="m1029.9 912.9-16 5.6c6.4 1.8 9.4 4.1 9 6.7-.3 2.6-4.1 5.3-11.1 8l-16.4-3.3c3.9-1.6 5.7-3.1 5.2-4.6-.5-1.5-3.2-2.7-8-3.7-5.2-1.1-10.7-1.4-16.7-1.1-5.9.4-11.2 1.3-15.8 3-1.7.6-3 1.2-3.8 1.8-.9.6-1.3 1.2-1.3 1.9-.1 1.3 2.9 2.9 8.9 5 3.6 1.2 6.2 2.2 7.8 2.9 5.6 2.6 8.1 5.1 7.3 7.7-.7 2.6-4.5 5.1-11.4 7.5-8.7 3.1-18.7 5.1-30 6.2-11.2 1.1-21.5 1-30.7-.4l-19.2 6.7-15.3-3.1 18.4-6.5c-8.1-2.3-12-4.9-11.6-8 .3-3.1 4.9-6.2 13.7-9.3l15.8 3.2c-5.6 2.2-8.2 4.1-7.7 5.9.4 1.7 3.9 3.3 10.5 4.6 6 1.2 12.4 1.6 19.1 1.2 6.8-.4 12.8-1.5 18.1-3.4 1.9-.7 3.4-1.3 4.6-2 1.2-.6 1.9-1.3 2.3-1.8 1.2-1.9-1.6-4-8.2-6.3-1.1-.4-1.9-.7-2.4-.9-8.1-2.9-12.3-5.7-12.7-8.3-.4-2.6 3-5.2 10.3-7.7 7.9-2.8 16.9-4.6 26.9-5.5 10-.9 19.8-.7 29.3.5l15.8-5.5 15.3 3z"></path></g><g opacity=".43"><path fill="#fff" d="m1029.9 906.7-16 5.6c6.4 1.8 9.4 4.1 9 6.7-.3 2.6-4.1 5.3-11.1 8l-16.4-3.3c3.9-1.6 5.7-3.1 5.2-4.6-.5-1.5-3.2-2.8-8-3.7-5.2-1.1-10.7-1.4-16.7-1.1-5.9.4-11.2 1.3-15.8 3-1.7.6-3 1.2-3.8 1.8-.9.6-1.3 1.2-1.3 1.9-.1 1.3 2.9 2.9 8.9 5 3.6 1.2 6.2 2.2 7.8 2.9 5.6 2.6 8.1 5.1 7.3 7.7-.7 2.6-4.5 5.1-11.4 7.5-8.7 3.1-18.7 5.1-30 6.2-11.2 1.1-21.5 1-30.7-.4l-19.2 6.7-15.3-3.1 18.4-6.5c-8.1-2.3-12-4.9-11.6-8 .3-3.1 4.9-6.2 13.7-9.3l15.8 3.2c-5.6 2.2-8.2 4.1-7.7 5.9.4 1.7 3.9 3.3 10.5 4.6 6 1.2 12.4 1.6 19.1 1.2 6.8-.4 12.8-1.5 18.1-3.4 1.9-.7 3.4-1.3 4.6-2 1.2-.6 1.9-1.3 2.3-1.8 1.2-1.9-1.6-4-8.2-6.3-1.1-.4-1.9-.7-2.4-.9-8.1-3-12.3-5.7-12.7-8.3-.4-2.6 3-5.2 10.3-7.7 7.9-2.8 16.9-4.6 26.9-5.5 10-.9 19.8-.7 29.3.5l15.8-5.5 15.3 3z"></path></g><path fill="#ffc910" d="M788.2 865.1c-.4-12.1-1-28.2-1.5-40.3.3 8.3 1.1 30.8 1.5 39.4-.1.3-.1.6 0 .9z"></path><path fill="#ffbe55" d="M1106.3 807.8c.5 14.9 1.1 29.7 1.6 44.6.4 11.4-13.8 23.4-43.3 33.7-63.6 22.3-174.1 28.4-246.8 13.6-39-7.9-59.2-20.3-59.7-33.5l-1.6-44.6c.5 13.2 20.7 25.5 59.7 33.5 72.7 14.8 183.2 8.7 246.8-13.6 29.5-10.3 43.7-22.3 43.3-33.7z"></path><g opacity=".06"><path fill="#231f20" d="M1106.3 807.8c.5 14.9 1.1 29.7 1.6 44.6.4 11.4-13.8 23.4-43.3 33.7-63.6 22.3-174.1 28.4-246.8 13.6-39-7.9-59.2-20.3-59.7-33.5l-1.6-44.6c.5 13.2 20.7 25.5 59.7 33.5 72.7 14.8 183.2 8.7 246.8-13.6 29.5-10.3 43.7-22.3 43.3-33.7z"></path></g><path fill="#ffbe55" d="M1046.6 774.3c72.7 14.8 80 44.9 16.4 67.2-63.6 22.3-174.1 28.4-246.8 13.6-72.7-14.8-80-44.9-16.4-67.2 63.6-22.3 174.1-28.4 246.8-13.6zM836 848.2c60.2 12.3 151.7 7.2 204.4-11.3 52.7-18.5 46.6-43.4-13.6-55.6-60.2-12.2-151.7-7.2-204.4 11.3-52.7 18.4-46.6 43.3 13.6 55.6z"></path><g opacity=".29"><path fill="#fff" d="M1046.6 774.3c72.7 14.8 80 44.9 16.4 67.2-63.6 22.3-174.1 28.4-246.8 13.6-72.7-14.8-80-44.9-16.4-67.2 63.6-22.3 174.1-28.3 246.8-13.6zM836 848.2c60.2 12.3 151.7 7.2 204.4-11.3 52.7-18.5 46.6-43.4-13.6-55.6-60.2-12.2-151.7-7.2-204.4 11.3-52.7 18.4-46.6 43.3 13.6 55.6z"></path></g><path fill="#ffbe55" d="M1026.8 781.3c60.2 12.3 66.3 37.2 13.6 55.6-52.7 18.5-144.2 23.5-204.4 11.3-60.2-12.3-66.3-37.2-13.6-55.6 52.7-18.5 144.2-23.6 204.4-11.3z"></path><path fill="#231f20" d="M822.4 798.1c52.7-18.5 144.2-23.5 204.4-11.3 30 6.1 46.5 15.3 49.1 25.3 3-12.1-13.7-23.7-49.1-30.9-60.2-12.2-151.7-7.2-204.4 11.3-26.5 9.3-38.1 20.2-35.5 30.3 2.1-8.4 13.8-17.1 35.5-24.7z" opacity=".11"></path><g opacity=".05"><path fill="#231f20" d="m1002.1 795.2-16 5.6c6.4 1.8 9.4 4.1 9 6.7-.3 2.6-4.1 5.3-11.1 8l-16.4-3.3c3.9-1.6 5.7-3.1 5.2-4.6-.5-1.5-3.2-2.7-8-3.7-5.2-1.1-10.7-1.4-16.7-1.1-5.9.4-11.2 1.3-15.8 3-1.7.6-3 1.2-3.8 1.8-.9.6-1.3 1.2-1.3 1.9-.1 1.3 2.9 2.9 8.9 5 3.6 1.2 6.2 2.2 7.8 2.9 5.6 2.6 8.1 5.1 7.3 7.7-.7 2.6-4.5 5.1-11.4 7.5-8.7 3.1-18.7 5.1-30 6.2-11.2 1.1-21.5 1-30.7-.4l-19.2 6.7-15.3-3.1 18.4-6.5c-8.1-2.3-12-4.9-11.6-8 .3-3.1 4.9-6.2 13.7-9.3l15.8 3.2c-5.6 2.2-8.2 4.1-7.7 5.9.4 1.7 3.9 3.3 10.5 4.6 6 1.2 12.4 1.6 19.1 1.2 6.8-.4 12.8-1.5 18.1-3.4 1.9-.7 3.4-1.3 4.6-2 1.2-.6 1.9-1.3 2.3-1.8 1.2-1.9-1.6-4-8.2-6.3-1.1-.4-1.9-.7-2.4-.9-8.1-2.9-12.3-5.7-12.7-8.3-.4-2.6 3-5.2 10.3-7.7 7.9-2.8 16.9-4.6 26.9-5.5 10-.9 19.8-.7 29.3.5l15.8-5.5 15.3 3z"></path></g><g opacity=".43"><path fill="#fff" d="m1002.1 788.9-16 5.6c6.4 1.8 9.4 4.1 9 6.7-.3 2.6-4.1 5.3-11.1 8l-16.4-3.3c3.9-1.6 5.7-3.1 5.2-4.6-.5-1.5-3.2-2.8-8-3.7-5.2-1.1-10.7-1.4-16.7-1.1-5.9.4-11.2 1.3-15.8 3-1.7.6-3 1.2-3.8 1.8-.9.6-1.3 1.2-1.3 1.9-.1 1.3 2.9 2.9 8.9 5 3.6 1.2 6.2 2.2 7.8 2.9 5.6 2.6 8.1 5.1 7.3 7.7-.7 2.6-4.5 5.1-11.4 7.5-8.7 3.1-18.7 5.1-30 6.2-11.2 1.1-21.5 1-30.7-.4l-19.2 6.7-15.3-3.1 18.4-6.5c-8.1-2.3-12-4.9-11.6-8 .3-3.1 4.9-6.2 13.7-9.3l15.8 3.2c-5.6 2.2-8.2 4.1-7.7 5.9.4 1.7 3.9 3.3 10.5 4.6 6 1.2 12.4 1.6 19.1 1.2 6.8-.4 12.8-1.5 18.1-3.4 1.9-.7 3.4-1.3 4.6-2 1.2-.6 1.9-1.3 2.3-1.8 1.2-1.9-1.6-4-8.2-6.3-1.1-.4-1.9-.7-2.4-.9-8.1-3-12.3-5.7-12.7-8.3-.4-2.6 3-5.2 10.3-7.7 7.9-2.8 16.9-4.6 26.9-5.5 10-.9 19.8-.7 29.3.5l15.8-5.5 15.3 3z"></path></g><path fill="#fcd2b1" d="M337.3 829.8c0 .1 0 .1 0 0-7.2 34.4-3.8 81.4-5.4 107.2.4.1 9.8 1.3 9.8 1.3s22.4-108.8 26.4-129.6c.3-1.5.5-2.8.5-4 1-15.7-13.2-16.5-21.1-3.5-1.3 2.1-2.5 4.5-3.6 7-.4 1-.9 2.1-1.3 3.2-1.3 3.4-2.5 7-3.5 10.9l-.1.4-.9 3.3-.1.3c-.2 1.2-.5 2.3-.7 3.5z"></path><path fill="#fcd2b1" d="M379.6 706.8c-.3 2.8-1.8 16.3-3.6 32.3-1.6 13.4-3.3 28.5-4.6 40.4-1 9-1.7 16.1-2 19.5-.2 2.1-.4 4-.8 5.8v.1c-3.4 15.7-14.2 16.6-20.8 12.9-.9-.5-1.8-1.1-2.5-1.7-1.5-1.4-2.5-3-2.8-4.6-.4-3.2-.8-7.6-1.2-12.8V798.4c-.8-10.2-1.5-23.3-2.1-36-.7-15.7-1.2-30.7-1.3-39.2 0-.5 0-.9-.1-1.4-.1-26.1 23.9-42.8 38.8-34.7.2.1.3.2.5.3.2.2.4.3.6.3 1.7 1.1 2.3 5 2.3 9.5.1 3.1-.2 6.6-.4 9.6zM394.8 836.4c-.7 36 10.4 81.9 13.3 108 .4 0 9.1-1.2 9.1-1.2s1.7-113.7 1.8-135.5c0-1.5-.1-2.9-.2-4.1-1.8-15.8-14.6-13.1-19.6 1.7-.8 2.4-1.5 5.1-2.1 7.9-.2 1.1-.4 2.3-.6 3.5-.6 3.7-1 7.6-1.3 11.8v.4c-.1 1.2-.2 2.3-.2 3.5v.3c-.2 1.2-.2 2.4-.2 3.7z"></path><path fill="#fcd2b1" d="M402.2 821.7c-.9-.2-1.8-.6-2.5-1.1-1.6-1-2.8-2.3-3.3-3.9-.9-3.1-2.1-7.4-3.3-12.5v-.1l-.1-.1c-2.4-9.9-5.3-22.7-8-35.2-3.3-15.4-6.3-30.3-7.8-38.8-.1-.5-1.4-6.6-1.5-7.1-4.6-26.2 15.8-43.3 30.7-38.3.2.1.4.1.6.2 3 1.2 3.8 11.7 4.5 18.8.7 7.1 5.7 80.7 7 94 .2 2.1.3 4.1.3 6-.4 16.5-10 20.1-16.6 18.1zM358.3 664.7s-.2-.7-8.9 6.5c-1.5-3.3-2.4-10-7.7-15.4-7.8-7.8-14.4-14.9-27.4-37.3-1.6-2.8-2.2-6.1-1.4-9.3 3.1-13.3 12-44.3 12-44.3l4.7 1.2 16.7 4.3s-11.2 25.4-14.9 38.3c-.4 1.4-.3 2.8.3 4.1 8 16.7 26.6 51.9 26.6 51.9z"></path><path fill="#0e538c" d="M345.2 631.1s-19.2 24.4-17.3 49c.8 10.2 6.9 19.5 8 29.8.2 1.5 4.3 99.2 4.5 107.4 0 0 19.4 5.9 30 5 13.1-1.1 45.2-1 48.5-1 0-2.6 0-144.1-25.6-193.1-24.9 3.5-48.1 2.9-48.1 2.9z"></path><path fill="#2a94f4" d="M404.1 580.4c-1.2 6.9-5 14-10.3 19.9-1 1.6-1.7 6.5-1.9 11.7v.1c-.3 6.9.1 14.4 1.5 16-7.7 6.7-35.4 12.1-48.1 3 1.3-11.3-3.7-36.2-7.1-48.8-.5-1.9-1-3.6-1.4-4.9-3.2-9.6 29.2-41.8 29.2-41.8l16.6-7.5s14.9 5.4 20.1 10.3c-3.6 6.2-6.9 11.4.8 30.2 1.2 3.7 1.3 7.8.6 11.8z"></path><path fill="#ffe3ca" d="M400.2 470.4s18.5 55-26.4 51.2c-32.9-3.9-8-31.3-7.8-33 .1-1.8 15.9-22.5 15.9-22.5l18.3 4.3zM503.2 571c.3 3.7-1.8 9.9-10.2 11-.4.2-1.3.6-2.4 1.3-5.4 3.3-18.1 11.9-30.8 20-.3.2-.5.3-.8.5-.9.5-1.7 1.1-2.5 1.6-12.5 7.8-24.3 14.6-28.6 14.9-8-2.7-24.5-28.9-33.7-61.7-2.2-7.8 1.1-16.1 8.4-20.1 0 0 5.4 4.1 7.7 8 6.6 11.2 21.2 48.1 22.6 51.8 6.8-3.1 26.7-15.1 46.5-23.6 4.4-1.9 6.1-3.6 7.7-6.4 1.5-2.9 5.1-9.7 8.2-12.9 1.7-1.7 3.4-1.2.2 7.2l-.8 1.5s7.3 2 8.1 5.2c.2.5.4 1.1.4 1.7z"></path><path fill="#0b4870" d="M386.4 450.5c.1.1 3.3-1.4 3.6-1.5 2.6-.7 5.5-.8 8 .3 6.5 2.8 9.7 12.3 8.2 18.9-1.7 7.3-9.1 10.1-15.9 10.7-3.4.3-6.4 2.7-7.6 5.9-1.9 4.8 1.5 9.3.7 14.1-.6 3.4-3.3 4.8-5.1 7.4-1.9 2.9-1.6 6.1.4 9 3.7 5.3 6.6 13.2 2.1 19.2-2.1 2.8-2.3 6.2-1.1 9.4 1.4 3.6 4.9 5.6 6.8 9 3.1 5.5 3.5 12.8.7 18.5-2.7 5.5-9.1 8.9-15.1 9.2-4.2.2-9-.6-12.9 1.1-3.5 1.6-5.4 5.2-8.9 7-7 3.4-17.4 1.6-21-6-2.1-4.5-7.5-3.7-11.5-5.1-4.8-1.6-8.7-5.8-9.8-10.7-.8-3.6-.2-7.5 1.2-11 1-2.3 2.3-4.3 3.9-6.3s3.7-4.1 3.5-6.9c-.3-4.2-3.5-7.4-4.9-11.2-.9-2.3-1.4-4.7-1.4-7.2 0-7.5 5.3-13 11.4-16.6.5-.3.9-.5 1.4-.8 8-5 11.2-7.8 10.7-21.4-.6-13.6.7-34.5 32-38.7 4.2-1.1 15.6-.4 20.6 3.7zM439.8 953c-7.9 1.4-16.8 0-20.2.6-2.8.5-10.9.8-13.2.9-2.3.1-2.3-11.2.9-12.3 0 0 .7.3 2 .5 2 .3 5.2.4 9.3-.8 6 2.5 6.2 3.5 13 4.9 3 .6 6.4 1.6 8.7 2.6 3 1.4 4 2.8-.5 3.6zM359 953.2c-7.9-1.3-15.8-5.7-19.2-6.3-2.8-.5-10.6-2.9-12.7-3.6-2.1-.7 1.6-11.3 5-11.3 0 0 .6.5 1.8 1.2 1.7.9 4.8 2.2 9 2.4 4.8 4.3 4.6 5.4 10.6 9 2.6 1.6 5.5 3.7 7.3 5.4 2.2 2.3 2.6 4-1.8 3.2z"></path><path fill="#fcd2b1" d="M1556.6 534.6s-3.3 10.7 0 15c-7.9 6.2-22.1 4.3-22.1 4.3s4.3-4.4 0-19.3 22.1 0 22.1 0z"></path><path fill="#0b4870" d="M1601.3 971c7.9-.7 15.7-4.9 19.1-5.2 2.8-.3 10.5-2.3 12.7-2.8 2.1-.6-1.7-13.5-5.1-13.9 0 0-.6.5-1.7 1.2-1.7.9-4.7 2-9 1.8-4.8 4.6-4.6 5.9-10.5 9.5-2.6 1.6-5.4 3.7-7.2 5.6-2.3 2.2-2.7 4.2 1.7 3.8z"></path><path fill="#fcd2b1" d="M1626.1 943.3s1.3 5.4 2.3 6.4c-6.1 6.9-11.2 3.2-11.2 3.2v-.9l-1.5-6.7 10.4-2zM1552.8 603.7s-3.8 39.6-11.2 52.9c-6.2 11.2-54.2 27.8-57.4 31.3-5.2 5.7-10.1-.4-16.1 2.9-2 1.1-7 2.1-9.7 2.7-2.8.6-1.3-3.6 7.2-10.4 4.9-2.7 13.5-2.5 13.8-2.8.3-.3 35.1-23.2 36.6-27.8 1.5-4.6 6.8-56.5 6.8-56.5l30 7.7z"></path><path fill="#0b4870" d="M1489.5 967.8c7.7 1.8 16.4.3 19.8 1.1 2.8.6 10.7 1.2 12.9 1.3 2.2.1 2.6-13.3-.4-14.8 0 0-.7.3-2 .6-1.9.3-5.1.4-9.1-1.1-6 2.8-6.2 4.1-12.9 5.7-2.9.7-6.3 1.8-8.6 3-3 1.4-4 3.1.3 4.2z"></path><path fill="#fcd2b1" d="M1521.8 949.3s-.5 5.5.2 6.9c-7.9 4.6-11.6-.5-11.6-.5l.3-.9.7-6.8 10.4 1.3z"></path><path fill="#0e538c" d="M1591.5 739.5s16.4-33.3-6.9-59.6c0 0-21.8 8.2-38.9 8.2-13.4.1-20.2-1.8-20.2-1.8s-4.6 24.7-5.4 63.7l71.4-10.5zM1539.9 853.4c0 .1 0 .1 0 0 0 33.5-11.6 76.4-15.7 100.6-.4 0-.9 0-1.3-.1-8.9-.5-13.8-1.8-13.8-1.8l.1-2.6c3-39.1 2.3-103.2 2.6-123.5 0-1.4.1-2.7.4-3.9 2.5-14.7 17.6-11.8 23.2 2.2.9 2.3 1.7 4.8 2.3 7.4.2 1.1.5 2.1.7 3.3.6 3.5 1.1 7.1 1.3 11v.4c.1 1.1.1 2.2.2 3.3v3.7z"></path><path fill="#0e538c" d="M1563.5 753.5c-.1.4-.2.8-.4 1.2-3.6 14.2-13.5 48.1-20.4 68.5v.2c-1.6 4.7-3 8.7-4.2 11.6-.6 1.4-2.1 2.7-4 3.5-.9.4-1.9.7-3 1-7.8 1.6-19.1-2-19.1-17.4 0-1.7.1-3.6.4-5.5 1.8-12.4 8.9-81 9.8-87.6 1-6.6 2.8-16.2 6.3-17.2 17.8-4.9 40.7 17.1 34.6 41.7z"></path><path fill="#5146af" d="m1539.2 829.3 3.5-5.8v.1c-.4 1.4-3 11.5-2.9 22.6v.4c0 1.1.1 2.2.2 3.3v.2c.1 1.8.1 2.9 0 3.4v.1c-.7 2.9-4.6-11.5-5.5-14.9-.1-.4-.2-.7-.2-.7l3.5-6.2 1.4-2.5z"></path><path fill="#0e538c" d="M1563.1 754.8c-3.6 14.2-13.5 48.1-20.4 68.5v.2c-.4 1.4-3 11.5-2.9 22.6v.4c.1 1.1.1 2.2.2 3.3v3.7c0 33.5-11.6 76.3-15.7 100.5-.4 0-.9 0-1.3-.1 0 0 4.7-39.8 10-67.2 4.1-21.2.4-39.8-1.6-47.2-.6-2.2-1-3.4-1-3.4l5.1-11.8c5.8-15.4 8.2-52 8.2-52-10-26.5-9.6-59-9.6-59l9.9 2 16.5 22.6 2.6 16.9zM1593.8 827.1c-11.1-11.9-27.9-7.6-21.3 10.1 7.1 19 29.3 71.9 40.8 109.4l.8 2.4s5.6-.6 14.7-3.8c-5.1-24.2-7.3-65.4-19.1-94.7-3.9-9.5-10.1-17.3-15.9-23.4z"></path><path fill="#0e538c" d="M1534 713.4c-.6-27.6 32.6-7.2 48.4 2.9 6.7 4.3 8.7 12.1 9.2 19.3.5 7.3 4.7 81.9 5.6 95.5 2.1 30.7-23.5 12.4-25.5 3.8-4.9-21.6-37.4-106.4-37.7-121.5z"></path><path fill="#ffe3ca" d="M1511.2 497.9s-5.7 53.7 34.8 42.3c2.1.3 14.4-2.8 16.3-19.1 1.8-16.3-7.5-33.5-8.3-34.1-.8-.5-26.3-1.3-27.3-1.3-1.1.1-15.5 12.2-15.5 12.2z"></path><path fill="#0b4870" d="M1545.2 511.6s-6.2-2.8-4.6-11.3c1.5-8.5.5-9-5.7-5.4-6.2 3.6-37.4 20.6-32-19.1 3.6 2.1 15 1.8 17.3-3.1 2.3-4.9 28.9-18.3 39 1.3 7 .3 15 8.3 14.2 24-.8 15.7-6.5 36-12.4 37.1-5.9 1.1-9-3.6-8.8-11.1.3-3.9 11.6-9 3.4-20.6-3.7-3.9-13.7-.6-10.4 8.2z"></path><path fill="#2a94f4" d="M1512.3 614.3s10.3 8 17.8 8.6l-3.9-44.8-4.2 11-9.7 25.2z"></path><path fill="#2a94f4" d="M1520.1 685s.5.2 1.3.5c5.9 2.2 29.4 16 61.1 0 3.9-2 6-7.8 6-7.8s-5.2-11.7-6.2-45.8c-1-34-.1-37.8-5.8-54.7-5-14.7-21.3-32.9-21.3-32.9s-15.2 9.5-20.7 9.5c-6.9 16.8-14.1 38.6-11.5 54.4 1.7 10.5-.1 41.1-1.5 60.3-.8 9.8-1.4 16.5-1.4 16.5z"></path><path fill="#ffe3ca" d="M1563.1 618.2s-8.8 38.8-17.9 51c-7.6 10.3-57.3 20.6-60.9 23.8-5.9 5-10-1.7-16.4.8-2.2.8-1.3 1.9-4.1 2.1-2.8.2-6.7-4.4 2.6-10.1 5.2-2.1 13.7-.8 14.1-1 .4-.3 47.5-23 49.6-27.4 2.1-4.4 11.1-44.1 11.1-44.1l21.9 4.9z"></path><path fill="#2a94f4" d="M1565.7 580.3s4.7 19.1 0 42.5c-19.2 1-33.9-4.1-33.9-4.1l6.1-31.3"></path><path fill="#ee5a28" d="m1429.8 743.7 34.2 2.6 2 .8-34.3-2.6z"></path><path fill="#ffab01" d="m1432 743.1 34.3 2.6-.3 1.4-34.3-2.6z"></path><path fill="#ffca10" d="m1432 743.1 34.3 2.6 11.7 4.8-34.3-2.6z"></path><path fill="#ffc910" d="M1447.4 715.7c6.2.5 14.5 1.1 20.6 1.6-3.7-.2-7.1-.5-12.4-.5-5.2 0-9.7.2-12.4.4-1.6.1-6.4.4-12.5 1.3-5.4.7-8.7 1.4-12.4 2.2 9.3-4 19.1-5.7 29.1-5z"></path><path fill="#ffbe55" d="M1466.2 720.2c-43.5-17.8-90.8 16.7-105.5 77-14.8 60.3 8.6 123.6 52.1 141.4 43.5 17.8 90.8-16.7 105.5-77 14.8-60.2-8.6-123.6-52.1-141.4z"></path><g opacity=".26"><path fill="#231f20" d="M1365.9 802c14.8-60.3 62-94.8 105.5-77 6.6 2.7 12.8 6.5 18.4 11.1-7-6.9-14.9-12.3-23.6-15.9-43.5-17.8-90.8 16.7-105.5 77-12.5 51.1 2.4 104.4 33.7 130.3-27.7-27.2-40.3-77.3-28.5-125.5z"></path></g><path fill="#ffab01" d="M1447.4 715.7c11.4.9 22.8 1.7 34.3 2.6 6.3.5 12.6 2 18.9 4.5l-34.3-2.6c-6.3-2.5-12.7-4-18.9-4.5z"></path><path fill="#ffbe55" d="M1471.7 697.6c52.6 21.5 80.7 97.9 62.9 170.8-17.8 72.8-74.9 114.4-127.4 92.9-52.6-21.5-80.7-97.9-62.9-170.8 17.8-72.8 74.9-114.4 127.4-92.9zm-58.9 241.1c43.5 17.8 90.8-16.7 105.5-77 14.8-60.3-8.6-123.6-52.1-141.5-43.5-17.8-90.8 16.7-105.5 77-14.8 60.3 8.5 123.7 52.1 141.5z"></path><g opacity=".26"><path fill="#fff" d="M1470.4 696.4c52.6 21.5 80.7 97.9 62.9 170.8-17.8 72.8-74.9 114.4-127.4 92.9-52.6-21.5-80.7-97.9-62.9-170.8 17.8-72.8 74.8-114.4 127.4-92.9zm-59 241c43.5 17.8 90.8-16.7 105.5-77 14.8-60.3-8.6-123.6-52.1-141.5-43.5-17.8-90.8 16.7-105.5 77-14.8 60.4 8.6 123.7 52.1 141.5z"></path></g><path fill="#ffbe55" d="M1449 692.2c11.4.9 22.8 1.7 34.3 2.6 7.6.6 15.2 2.4 22.8 5.5l-34.3-2.6c-7.6-3.2-15.2-5-22.8-5.5z"></path><path fill="#ffbe55" d="M1464.3 969.4c-11.4-.9-22.8-1.7-34.3-2.6 45.4 3.5 89.4-36 104.7-98.4 17.8-72.8-10.4-149.3-62.9-170.8l34.3 2.6c52.6 21.5 80.7 97.9 62.9 170.8-15.3 62.4-59.4 101.8-104.7 98.4z"></path><path fill="#231f20" d="M1553.1 912.7c6.9-12.3 12.4-26.3 16.2-41.7 8.3-34 6.6-68.8-2.9-98.5l-33.2 1c8.6 28.8 9.8 62.2 1.8 94.9-4.1 17-10.4 32.2-18.3 45.4l36.4-1.1z" opacity=".22"></path><g opacity=".06"><path fill="#231f20" d="m1463.6 750.9-4.5 18.2c5 3.3 8.5 8.4 10.4 15.2 1.9 6.8 1.9 14.7.2 23.5l-11.9-4.9c1-5 .7-9.4-.8-13.2-1.5-3.8-4-6.4-7.5-7.8-3.8-1.5-7.1-1.2-10.2 1.1-3 2.3-5.2 6.1-6.5 11.4-.5 2-.7 3.8-.7 5.6 0 1.8.3 3.5.7 5.1 1 3.4 4 7 9 10.8 3 2.3 5.2 4.2 6.7 5.8 5.2 5.3 8.6 11.4 10.3 18.4 1.7 6.9 1.5 14.3-.4 22.2-2.4 10-6.4 17.7-11.8 23.2-5.4 5.4-11.3 7.5-17.5 6.2l-5.4 21.9-11.1-4.5 5.2-21.1c-6.3-4-10.6-10-12.9-18.2-2.3-8.1-2.2-17.3.2-27.4l11.5 4.7c-1.4 6.9-1.3 12.6.4 17 1.7 4.5 4.9 7.6 9.6 9.6 4.3 1.8 8.2 1.4 11.7-1.2 3.5-2.6 6-7 7.5-13.1.5-2.2.9-4.2 1-6.2.1-2 .1-3.7-.2-5.3-.9-5.2-4.1-10-9.6-14.5-.9-.7-1.6-1.3-2-1.7-6.9-5.8-11.5-12-13.8-18.6-2.3-6.7-2.4-14.1-.4-22.5 2.2-9.1 5.8-16 10.7-20.6 4.9-4.7 10.5-6.5 16.8-5.6l4.4-18.1 10.9 4.6z"></path></g><path fill="#fff" d="m1457.1 749.1-4.5 18.2c5 3.3 8.5 8.4 10.4 15.2 1.9 6.8 1.9 14.7.2 23.5l-11.9-4.9c1-5 .7-9.4-.8-13.2-1.5-3.8-4-6.4-7.5-7.8-3.7-1.5-7.1-1.2-10.2 1.1-3 2.3-5.2 6.1-6.5 11.4-.5 2-.7 3.8-.7 5.6 0 1.8.2 3.5.7 5.1 1 3.4 4 7 9 10.8 3 2.3 5.2 4.2 6.7 5.8 5.2 5.3 8.6 11.4 10.3 18.4 1.7 6.9 1.5 14.3-.4 22.2-2.4 10-6.4 17.7-11.8 23.2-5.4 5.4-11.3 7.5-17.5 6.2l-5.4 21.9-11.1-4.5 5.2-21.1c-6.3-4-10.7-10-12.9-18.2-2.3-8.1-2.2-17.3.2-27.4l11.5 4.7c-1.4 6.9-1.3 12.6.3 17 1.7 4.5 4.9 7.6 9.6 9.6 4.3 1.8 8.2 1.4 11.7-1.2 3.5-2.6 6-7 7.4-13.1.5-2.2.9-4.2 1-6.2.1-2 .1-3.7-.2-5.3-.9-5.2-4.1-10-9.6-14.5-.9-.7-1.6-1.3-2-1.7-6.9-5.8-11.5-12-13.8-18.6-2.3-6.7-2.4-14.1-.4-22.5 2.2-9.1 5.8-16 10.7-20.6 4.9-4.7 10.5-6.5 16.8-5.6l4.4-18.1 11.1 4.6z" opacity=".4"></path><path fill="#ffe3ca" d="m1489.8 690.8-2.4 2.4c-3.7 3.8-8.9 5.7-14.1 5-3.7-.5-7.5-1.2-9.1-1.8l-1.8-.6c-2.2-.7-3.1-3.4-1.8-5.3 1.5-2.1 3.8-4.5 7.3-5.3 7-1.5 22-5.4 21.9 5.6z"></path></svg>