<svg width="885" height="728" viewBox="0 0 885 728" fill="none" xmlns="http://www.w3.org/2000/svg">
<mask id="mask0_1170_2061" style="mask-type:alpha" maskUnits="userSpaceOnUse" x="34" y="79" width="816" height="570">
<rect x="854.489" y="357.123" width="765.716" height="306.533" rx="15" transform="rotate(157.239 854.489 357.123)" fill="white"/>
</mask>
<g mask="url(#mask0_1170_2061)">
<path d="M844.934 164.409L824.383 176.892C822.808 177.849 820.977 178.299 819.138 178.182L783.387 175.902C781.13 175.758 778.901 176.47 777.144 177.895L717.682 226.137C716.176 227.359 714.316 228.061 712.378 228.14L664.918 230.074C662.816 230.16 660.811 230.978 659.251 232.388L614.13 273.154C613.554 273.675 612.913 274.118 612.224 274.474L563.455 299.639C562.579 300.091 561.783 300.684 561.1 301.394L528.792 334.936C527.785 335.981 526.54 336.768 525.163 337.228L478.521 352.817C477.32 353.218 476.218 353.868 475.286 354.724L430.424 395.929C429.178 397.074 427.634 397.844 425.97 398.151L373.529 407.835C371.744 408.164 370.1 409.026 368.814 410.307L319.944 458.962C317.102 461.791 312.73 462.399 309.224 460.451L259.831 433.014C256.284 431.044 251.857 431.691 249.022 434.595L205.161 479.515C203.077 481.65 200.07 482.613 197.133 482.087L149.333 473.517" stroke="#F5F5F5" stroke-width="1.5"/>
<path d="M765.036 161.586L750.956 172.356C748.598 174.16 745.502 174.684 742.681 173.758L714.098 164.374C710.614 163.23 706.784 164.315 704.416 167.116L664.432 214.438C662.353 216.898 659.119 218.059 655.95 217.484L618.313 210.656C614.897 210.036 611.429 211.436 609.401 214.255L579.333 256.045C578.608 257.052 577.683 257.899 576.615 258.532L539.496 280.523C538.179 281.303 537.082 282.407 536.311 283.729L515.517 319.355C514.329 321.389 512.392 322.877 510.121 323.499L474.498 333.253C472.477 333.806 470.712 335.048 469.508 336.762L439.777 379.115C438.153 381.429 435.537 382.845 432.712 382.939L391.831 384.306C388.829 384.406 386.075 385.998 384.489 388.548L354.275 437.132C351.283 441.944 344.64 442.826 340.495 438.962L293.475 395.122C289.279 391.21 282.542 392.169 279.606 397.098L253.856 440.313C251.469 444.32 246.415 445.839 242.214 443.812L199.852 423.372" stroke="#438D8E" stroke-width="1.5"/>
</g>
</svg>
