
<svg xmlns="http://www.w3.org/2000/svg" xmlns:xlink="http://www.w3.org/1999/xlink" width="1200" zoomAndPan="magnify" viewBox="0 0 900 299.999988" height="400" preserveAspectRatio="xMidYMid meet" version="1.0"><defs><g/></defs><g fill="#ffffff" fill-opacity="1"><g transform="translate(30.014465, 186.528627)"><g><path d="M 35.421875 -45.40625 L 42.75 -45.40625 C 44.863281 -45.40625 46.550781 -45.425781 47.8125 -45.46875 C 49.082031 -45.519531 49.96875 -45.585938 50.46875 -45.671875 C 51.394531 -45.753906 52.578125 -46.132812 54.015625 -46.8125 C 55.785156 -47.738281 57.09375 -49.128906 57.9375 -50.984375 C 59.113281 -53.597656 59.320312 -56.378906 58.5625 -59.328125 C 57.8125 -62.453125 56.085938 -64.519531 53.390625 -65.53125 L 52.125 -66.28125 L 43.765625 -66.40625 L 38.203125 -66.40625 L 38.203125 -85.515625 C 42.503906 -85.515625 45.984375 -85.515625 48.640625 -85.515625 C 51.296875 -85.515625 53.378906 -85.515625 54.890625 -85.515625 C 56.410156 -85.515625 57.507812 -85.492188 58.1875 -85.453125 C 58.863281 -85.410156 59.328125 -85.390625 59.578125 -85.390625 C 66.742188 -84.796875 72.476562 -82.75 76.78125 -79.25 C 81.082031 -75.75 83.910156 -70.414062 85.265625 -63.25 C 86.359375 -56.332031 85.578125 -50.554688 82.921875 -45.921875 C 80.265625 -41.285156 76.023438 -38.503906 70.203125 -37.578125 L 68.4375 -37.4375 L 70.078125 -37.0625 C 75.648438 -36.21875 79.445312 -33.476562 81.46875 -28.84375 C 82.050781 -27.664062 82.53125 -25.9375 82.90625 -23.65625 C 83.289062 -21.375 83.65625 -18.460938 84 -14.921875 C 85.007812 -1.765625 85.515625 6.117188 85.515625 8.734375 L 85.515625 9.609375 L 58.703125 9.609375 L 58.4375 8.46875 C 58.351562 7.96875 58.289062 7.101562 58.25 5.875 C 58.207031 4.65625 58.101562 3.117188 57.9375 1.265625 C 57.175781 -12.648438 56.164062 -20.957031 54.90625 -23.65625 C 54.476562 -24.5 53.039062 -25.171875 50.59375 -25.671875 C 49.664062 -25.847656 46.84375 -26.019531 42.125 -26.1875 L 35.421875 -26.1875 L 35.421875 9.609375 L 9.734375 9.609375 L 9.734375 -36.4375 C 9.816406 -47.5625 9.835938 -56.410156 9.796875 -62.984375 C 9.753906 -69.566406 9.734375 -74 9.734375 -76.28125 C 9.566406 -80.582031 9.398438 -82.898438 9.234375 -83.234375 C 8.816406 -84.242188 8.140625 -84.960938 7.203125 -85.390625 C 7.710938 -85.390625 8.304688 -85.390625 8.984375 -85.390625 C 9.660156 -85.390625 10.441406 -85.410156 11.328125 -85.453125 C 12.210938 -85.492188 13.242188 -85.515625 14.421875 -85.515625 L 35.421875 -85.515625 Z M 35.421875 -45.40625 "/></g></g></g><g fill="#ffffff" fill-opacity="1"><g transform="translate(123.74499, 186.528627)"><g><path d="M 4.9375 -62.875 C 4.425781 -63.039062 4.507812 -63.125 5.1875 -63.125 C 5.101562 -63.207031 6.175781 -63.25 8.40625 -63.25 C 10.644531 -63.25 13.914062 -63.25 18.21875 -63.25 L 33.78125 -63.25 L 33.78125 -36.8125 C 33.78125 -30.988281 33.78125 -26.347656 33.78125 -22.890625 C 33.78125 -19.429688 33.820312 -17.15625 33.90625 -16.0625 C 34.070312 -13.875 34.40625 -12.398438 34.90625 -11.640625 L 35.171875 -11.390625 C 35.929688 -10.460938 36.921875 -9.765625 38.140625 -9.296875 C 39.359375 -8.835938 40.5625 -8.609375 41.75 -8.609375 C 43.9375 -8.609375 45.660156 -9.21875 46.921875 -10.4375 C 48.191406 -11.65625 49.125 -13.28125 49.71875 -15.3125 C 49.800781 -15.726562 49.863281 -17.789062 49.90625 -21.5 C 49.945312 -25.21875 49.96875 -30.660156 49.96875 -37.828125 C 49.96875 -51.910156 49.882812 -59.289062 49.71875 -59.96875 C 49.632812 -60.46875 49.296875 -61.007812 48.703125 -61.59375 C 48.109375 -62.1875 47.519531 -62.613281 46.9375 -62.875 C 46.425781 -63.039062 46.550781 -63.125 47.3125 -63.125 C 47.726562 -63.207031 49.007812 -63.25 51.15625 -63.25 C 53.3125 -63.25 56.414062 -63.25 60.46875 -63.25 L 74.765625 -63.25 L 74.765625 9.609375 L 49.96875 9.609375 L 49.96875 1.640625 L 48.0625 3.421875 C 43.09375 8.140625 37.023438 10.5 29.859375 10.5 C 24.460938 10.5 19.96875 9.039062 16.375 6.125 C 12.789062 3.21875 10.285156 -0.757812 8.859375 -5.8125 L 8.21875 -7.96875 L 8.21875 -58.953125 L 7.46875 -60.09375 C 6.875 -61.4375 6.03125 -62.363281 4.9375 -62.875 Z M 4.9375 -62.875 "/></g></g></g><g fill="#ffffff" fill-opacity="1"><g transform="translate(207.103184, 186.528627)"><g><path d="M 52.125 -64.265625 C 58.945312 -64.265625 64.53125 -62.617188 68.875 -59.328125 C 73.21875 -56.035156 75.5625 -50.890625 75.90625 -43.890625 C 75.988281 -42.628906 76.03125 -39.890625 76.03125 -35.671875 C 76.03125 -31.453125 76.03125 -25.59375 76.03125 -18.09375 L 76.03125 9.609375 L 50.859375 9.609375 L 50.859375 -14.421875 C 50.859375 -22.515625 50.832031 -28.582031 50.78125 -32.625 C 50.738281 -36.675781 50.675781 -38.914062 50.59375 -39.34375 C 50.175781 -41.28125 49.269531 -42.796875 47.875 -43.890625 C 46.488281 -44.992188 44.910156 -45.546875 43.140625 -45.546875 C 41.953125 -45.546875 40.789062 -45.3125 39.65625 -44.84375 C 38.519531 -44.382812 37.507812 -43.753906 36.625 -42.953125 C 35.738281 -42.148438 35.039062 -41.21875 34.53125 -40.15625 C 34.03125 -39.101562 33.78125 -38.03125 33.78125 -36.9375 L 33.78125 -13.65625 L 33.65625 9.609375 L 8.859375 9.609375 L 8.859375 -25.171875 C 8.859375 -48.535156 8.773438 -60.46875 8.609375 -60.96875 C 8.265625 -61.894531 7.628906 -62.570312 6.703125 -63 C 6.617188 -63.082031 6.660156 -63.125 6.828125 -63.125 C 7.253906 -63.207031 8.519531 -63.25 10.625 -63.25 C 12.726562 -63.25 15.804688 -63.25 19.859375 -63.25 L 33.65625 -63.25 L 33.78125 -59.203125 L 33.78125 -55.03125 L 34.53125 -56.046875 C 35.539062 -57.304688 36.71875 -58.441406 38.0625 -59.453125 C 39.414062 -60.460938 40.875 -61.328125 42.4375 -62.046875 C 44 -62.765625 45.601562 -63.3125 47.25 -63.6875 C 48.894531 -64.070312 50.519531 -64.265625 52.125 -64.265625 Z M 52.125 -64.265625 "/></g></g></g><g fill="#ffffff" fill-opacity="1"><g transform="translate(291.346799, 186.528627)"><g><path d="M 36.046875 -64.140625 C 36.722656 -64.222656 37.566406 -64.265625 38.578125 -64.265625 C 39.585938 -64.265625 40.8125 -64.265625 42.25 -64.265625 C 43.6875 -64.179688 44.929688 -64.09375 45.984375 -64 C 47.035156 -63.914062 47.941406 -63.789062 48.703125 -63.625 C 53.765625 -62.78125 58.023438 -61.195312 61.484375 -58.875 C 64.941406 -56.5625 67.703125 -53.71875 69.765625 -50.34375 C 71.828125 -46.96875 73.34375 -43.210938 74.3125 -39.078125 C 75.28125 -34.953125 75.8125 -30.613281 75.90625 -26.0625 L 75.90625 -22.015625 L 53.640625 -21.890625 L 31.375 -21.890625 L 31.125 -20.875 C 31.039062 -20.03125 31.125 -18.425781 31.375 -16.0625 C 31.707031 -13.28125 32.503906 -10.960938 33.765625 -9.109375 C 35.035156 -7.253906 37.273438 -6.328125 40.484375 -6.328125 C 42.503906 -6.328125 44.296875 -6.75 45.859375 -7.59375 C 47.421875 -8.4375 48.535156 -9.867188 49.203125 -11.890625 C 49.628906 -12.898438 49.882812 -13.40625 49.96875 -13.40625 C 50.300781 -13.570312 54.429688 -13.65625 62.359375 -13.65625 C 70.367188 -13.65625 74.460938 -13.570312 74.640625 -13.40625 C 74.890625 -13.40625 74.59375 -12.394531 73.75 -10.375 C 72.226562 -6.488281 70.328125 -3.21875 68.046875 -0.5625 C 65.773438 2.09375 63.207031 4.238281 60.34375 5.875 C 57.476562 7.519531 54.335938 8.703125 50.921875 9.421875 C 47.503906 10.140625 43.851562 10.5 39.96875 10.5 C 36.507812 10.5 32.988281 10.117188 29.40625 9.359375 C 25.820312 8.597656 22.597656 7.289062 19.734375 5.4375 C 19.304688 5.1875 18.734375 4.742188 18.015625 4.109375 C 17.304688 3.472656 16.59375 2.773438 15.875 2.015625 C 15.15625 1.265625 14.457031 0.507812 13.78125 -0.25 C 13.113281 -1.007812 12.609375 -1.644531 12.265625 -2.15625 C 9.648438 -5.695312 7.734375 -9.847656 6.515625 -14.609375 C 5.296875 -19.378906 4.851562 -24.332031 5.1875 -29.46875 C 5.945312 -39.507812 8.941406 -47.5 14.171875 -53.4375 C 19.398438 -59.382812 26.691406 -62.953125 36.046875 -64.140625 Z M 43.515625 -47.9375 C 43.097656 -48.019531 42.65625 -48.082031 42.1875 -48.125 C 41.71875 -48.175781 41.273438 -48.203125 40.859375 -48.203125 C 37.316406 -48.203125 34.890625 -47.144531 33.578125 -45.03125 C 32.273438 -42.925781 31.457031 -40.269531 31.125 -37.0625 L 30.859375 -35.421875 L 51.109375 -35.421875 L 50.984375 -36.3125 C 50.898438 -38.082031 50.519531 -39.875 49.84375 -41.6875 C 49.164062 -43.5 48.445312 -44.910156 47.6875 -45.921875 C 46.84375 -47.015625 45.453125 -47.6875 43.515625 -47.9375 Z M 43.515625 -47.9375 "/></g></g></g><g fill="#ffffff" fill-opacity="1"><g transform="translate(372.301643, 186.528627)"><g><path d="M 7.34375 -85.140625 C 7.164062 -85.222656 7.289062 -85.304688 7.71875 -85.390625 C 8.132812 -85.472656 9.375 -85.515625 11.4375 -85.515625 C 13.507812 -85.515625 16.484375 -85.515625 20.359375 -85.515625 L 34.03125 -85.515625 L 34.03125 9.609375 L 9.234375 9.609375 L 9.234375 -83.234375 L 8.609375 -84 C 8.347656 -84.5 7.925781 -84.878906 7.34375 -85.140625 Z M 37.4375 -85.515625 L 47.8125 -85.515625 C 50.59375 -85.515625 52.890625 -85.515625 54.703125 -85.515625 C 56.523438 -85.515625 57.898438 -85.472656 58.828125 -85.390625 C 62.617188 -85.140625 66.132812 -83.976562 69.375 -81.90625 C 72.625 -79.84375 75.265625 -77.25 77.296875 -74.125 C 80.328125 -69.488281 81.757812 -64.515625 81.59375 -59.203125 C 81.507812 -57.179688 81.253906 -55.453125 80.828125 -54.015625 C 79.816406 -50.984375 78.046875 -48.328125 75.515625 -46.046875 C 72.984375 -43.765625 70.117188 -42.414062 66.921875 -42 C 65.566406 -41.75 64.847656 -41.578125 64.765625 -41.484375 C 64.765625 -41.316406 65.144531 -41.234375 65.90625 -41.234375 C 68.6875 -41.234375 71.171875 -40.726562 73.359375 -39.71875 C 75.554688 -38.707031 77.4375 -37.335938 79 -35.609375 C 80.5625 -33.878906 81.828125 -31.875 82.796875 -29.59375 C 83.765625 -27.320312 84.375 -24.878906 84.625 -22.265625 C 85.050781 -17.117188 84.125 -12.3125 81.84375 -7.84375 C 80.070312 -4.050781 77.601562 -0.804688 74.4375 1.890625 C 71.28125 4.597656 67.757812 6.625 63.875 7.96875 C 62.863281 8.394531 61.894531 8.710938 60.96875 8.921875 C 60.039062 9.128906 59.195312 9.273438 58.4375 9.359375 C 57.59375 9.441406 56.285156 9.484375 54.515625 9.484375 C 52.742188 9.484375 50.425781 9.484375 47.5625 9.484375 L 37.4375 9.609375 L 37.4375 -7.84375 L 43.640625 -7.84375 C 45.328125 -7.84375 46.695312 -7.863281 47.75 -7.90625 C 48.800781 -7.945312 49.625 -8.007812 50.21875 -8.09375 C 51.144531 -8.175781 52.242188 -8.515625 53.515625 -9.109375 C 54.265625 -9.609375 55.039062 -10.300781 55.84375 -11.1875 C 56.644531 -12.082031 57.21875 -12.945312 57.5625 -13.78125 C 58.40625 -15.550781 58.78125 -17.617188 58.6875 -19.984375 C 58.601562 -22.347656 58.140625 -24.375 57.296875 -26.0625 C 56.878906 -26.820312 56.269531 -27.578125 55.46875 -28.328125 C 54.664062 -29.085938 53.925781 -29.640625 53.25 -29.984375 C 52.070312 -30.660156 51.019531 -31.039062 50.09375 -31.125 C 49.582031 -31.207031 48.800781 -31.25 47.75 -31.25 C 46.695312 -31.25 45.328125 -31.25 43.640625 -31.25 L 37.4375 -31.25 L 37.4375 -49.84375 L 42.5 -49.84375 C 44.101562 -49.84375 45.410156 -49.84375 46.421875 -49.84375 C 47.429688 -49.84375 48.148438 -49.882812 48.578125 -49.96875 C 51.109375 -50.5625 53.066406 -51.867188 54.453125 -53.890625 C 55.847656 -55.910156 56.332031 -58.226562 55.90625 -60.84375 C 55.488281 -62.78125 54.835938 -64.273438 53.953125 -65.328125 C 53.066406 -66.390625 52.03125 -67.171875 50.84375 -67.671875 C 49.664062 -68.179688 48.359375 -68.476562 46.921875 -68.5625 C 45.492188 -68.644531 43.976562 -68.6875 42.375 -68.6875 L 37.4375 -68.6875 Z M 37.4375 -85.515625 "/></g></g></g><g fill="#ffffff" fill-opacity="1"><g transform="translate(462.110944, 186.528627)"><g><path d="M 54.390625 -64.390625 L 55.65625 -64.390625 L 55.53125 -53.765625 L 55.53125 -40.734375 L 53.515625 -40.859375 C 49.128906 -41.109375 45.375 -40.429688 42.25 -38.828125 C 40.476562 -37.898438 38.894531 -36.253906 37.5 -33.890625 C 36.113281 -31.535156 35.164062 -28.796875 34.65625 -25.671875 C 34.40625 -24.410156 34.28125 -18.210938 34.28125 -7.078125 L 34.28125 9.609375 L 8.859375 9.609375 L 8.859375 -25.671875 C 8.859375 -37.566406 8.835938 -46.378906 8.796875 -52.109375 C 8.753906 -57.847656 8.644531 -60.800781 8.46875 -60.96875 C 8.050781 -61.894531 7.460938 -62.53125 6.703125 -62.875 C 6.617188 -62.957031 6.660156 -63.039062 6.828125 -63.125 C 7.253906 -63.207031 8.582031 -63.25 10.8125 -63.25 C 13.050781 -63.25 16.191406 -63.25 20.234375 -63.25 L 34.28125 -63.25 L 34.28125 -50.859375 L 35.171875 -52.625 C 36.773438 -56.414062 39.367188 -59.320312 42.953125 -61.34375 C 46.535156 -63.375 50.347656 -64.390625 54.390625 -64.390625 Z M 54.390625 -64.390625 "/></g></g></g><g fill="#ffffff" fill-opacity="1"><g transform="translate(519.538307, 186.528627)"><g><path d="M 8.984375 -89.6875 L 34.15625 -89.6875 L 34.15625 -70.328125 L 8.984375 -70.328125 Z M 6.828125 -63 C 6.660156 -63.164062 6.617188 -63.226562 6.703125 -63.1875 C 6.785156 -63.144531 6.910156 -63.125 7.078125 -63.125 C 7.503906 -63.207031 8.769531 -63.25 10.875 -63.25 C 12.988281 -63.25 16.023438 -63.25 19.984375 -63.25 L 33.90625 -63.25 L 33.90625 9.609375 L 8.984375 9.609375 L 8.984375 -29.46875 C 8.984375 -37.394531 8.984375 -43.632812 8.984375 -48.1875 C 8.984375 -52.75 8.941406 -55.703125 8.859375 -57.046875 C 8.691406 -59.742188 8.394531 -61.390625 7.96875 -61.984375 C 7.71875 -62.410156 7.335938 -62.75 6.828125 -63 Z M 6.828125 -63 "/></g></g></g><g fill="#ffffff" fill-opacity="1"><g transform="translate(562.292589, 186.528627)"><g><path d="M 50.34375 -90.453125 L 49.328125 -90.953125 L 77.421875 -90.953125 L 77.421875 9.609375 L 52.375 9.609375 L 52.375 -88.171875 L 51.734375 -89.0625 C 51.316406 -89.8125 50.851562 -90.273438 50.34375 -90.453125 Z M 38.828125 -64.140625 C 39.335938 -64.140625 40.140625 -64.070312 41.234375 -63.9375 C 42.335938 -63.8125 43.457031 -63.625 44.59375 -63.375 C 45.726562 -63.125 46.757812 -62.804688 47.6875 -62.421875 C 48.613281 -62.046875 49.160156 -61.601562 49.328125 -61.09375 C 49.421875 -60.84375 49.46875 -58.1875 49.46875 -53.125 L 49.46875 -45.546875 L 48.953125 -45.546875 C 48.023438 -45.796875 47.160156 -46.003906 46.359375 -46.171875 C 45.554688 -46.335938 44.734375 -46.421875 43.890625 -46.421875 C 42.378906 -46.421875 41.070312 -46.273438 39.96875 -45.984375 C 38.875 -45.691406 37.78125 -44.992188 36.6875 -43.890625 C 35 -42.460938 33.835938 -40.351562 33.203125 -37.5625 C 32.566406 -34.78125 32.296875 -31.070312 32.390625 -26.4375 C 32.472656 -24.414062 32.597656 -22.285156 32.765625 -20.046875 C 32.929688 -17.816406 33.375 -15.769531 34.09375 -13.90625 C 34.8125 -12.050781 35.90625 -10.515625 37.375 -9.296875 C 38.851562 -8.078125 40.859375 -7.46875 43.390625 -7.46875 C 44.316406 -7.46875 45.222656 -7.570312 46.109375 -7.78125 C 46.992188 -7.988281 47.734375 -8.304688 48.328125 -8.734375 L 49.46875 -9.359375 L 49.46875 7.203125 L 47.6875 7.96875 C 44.570312 9.488281 40.3125 10.25 34.90625 10.25 C 29.59375 10.25 25.082031 9.210938 21.375 7.140625 C 17.664062 5.078125 14.648438 2.359375 12.328125 -1.015625 C 10.015625 -4.390625 8.285156 -8.269531 7.140625 -12.65625 C 6.003906 -17.039062 5.351562 -21.507812 5.1875 -26.0625 C 5.101562 -27.488281 5.082031 -28.726562 5.125 -29.78125 C 5.164062 -30.84375 5.226562 -31.710938 5.3125 -32.390625 C 5.988281 -39.210938 8.054688 -45.238281 11.515625 -50.46875 C 14.972656 -55.695312 19.988281 -59.492188 26.5625 -61.859375 C 28.5 -62.535156 30.519531 -63.082031 32.625 -63.5 C 34.738281 -63.925781 36.804688 -64.140625 38.828125 -64.140625 Z M 38.828125 -64.140625 "/></g></g></g><g fill="#ffffff" fill-opacity="1"><g transform="translate(649.19255, 186.528627)"><g><path d="M 34.78125 -64.390625 C 37.394531 -64.390625 40.175781 -64.050781 43.125 -63.375 C 46.082031 -62.695312 48.53125 -61.390625 50.46875 -59.453125 L 52.25 -57.8125 L 52.25 -63.25 L 77.671875 -63.25 L 77.671875 -29.59375 C 77.671875 -27.488281 77.691406 -24.664062 77.734375 -21.125 C 77.773438 -17.582031 77.773438 -13.890625 77.734375 -10.046875 C 77.691406 -6.210938 77.585938 -2.503906 77.421875 1.078125 C 77.253906 4.660156 76.957031 7.503906 76.53125 9.609375 C 75.601562 14.160156 74.039062 18.101562 71.84375 21.4375 C 69.65625 24.769531 66.957031 27.507812 63.75 29.65625 C 60.550781 31.8125 56.96875 33.394531 53 34.40625 C 49.039062 35.414062 44.828125 35.921875 40.359375 35.921875 C 36.054688 35.921875 31.835938 35.457031 27.703125 34.53125 C 23.566406 33.601562 19.726562 31.832031 16.1875 29.21875 C 13.15625 26.945312 10.644531 24.207031 8.65625 21 C 6.675781 17.789062 5.6875 14.207031 5.6875 10.25 L 32.125 10.25 C 32.550781 12.695312 33.648438 14.507812 35.421875 15.6875 C 37.191406 16.863281 39.210938 17.453125 41.484375 17.453125 C 43.765625 17.453125 45.597656 17.007812 46.984375 16.125 C 48.378906 15.238281 49.457031 14.078125 50.21875 12.640625 C 50.976562 11.210938 51.503906 9.570312 51.796875 7.71875 C 52.097656 5.863281 52.25 3.96875 52.25 2.03125 L 52.25 0.765625 L 50.984375 2.03125 C 48.953125 4.050781 46.289062 5.628906 43 6.765625 C 39.71875 7.898438 36.265625 8.46875 32.640625 8.46875 C 30.191406 8.46875 27.578125 7.941406 24.796875 6.890625 C 22.015625 5.835938 19.523438 4.425781 17.328125 2.65625 C 10.078125 -3.164062 6.03125 -12.820312 5.1875 -26.3125 C 4.507812 -37.019531 6.742188 -45.664062 11.890625 -52.25 C 14.503906 -55.789062 17.851562 -58.695312 21.9375 -60.96875 C 26.03125 -63.25 30.3125 -64.390625 34.78125 -64.390625 Z M 43.140625 -45.671875 C 42.210938 -45.671875 41.367188 -45.601562 40.609375 -45.46875 C 39.847656 -45.34375 39.210938 -45.113281 38.703125 -44.78125 C 38.117188 -44.53125 37.46875 -44.023438 36.75 -43.265625 C 36.03125 -42.503906 35.503906 -41.785156 35.171875 -41.109375 C 33.816406 -38.753906 32.929688 -35.253906 32.515625 -30.609375 C 32.335938 -28.253906 32.332031 -26.0625 32.5 -24.03125 C 32.675781 -22.007812 32.972656 -20.070312 33.390625 -18.21875 C 34.234375 -14.675781 35.835938 -12.269531 38.203125 -11 C 38.878906 -10.582031 39.40625 -10.351562 39.78125 -10.3125 C 40.164062 -10.269531 41.070312 -10.25 42.5 -10.25 C 45.195312 -10.25 47.238281 -10.859375 48.625 -12.078125 C 50.019531 -13.304688 51.054688 -15.269531 51.734375 -17.96875 C 52.078125 -18.894531 52.25 -22.601562 52.25 -29.09375 C 52.25 -35.5 52.078125 -39.082031 51.734375 -39.84375 C 50.128906 -43.726562 47.265625 -45.671875 43.140625 -45.671875 Z M 43.140625 -45.671875 "/></g></g></g><g fill="#ffffff" fill-opacity="1"><g transform="translate(735.586547, 186.528627)"><g><path d="M 36.046875 -64.140625 C 36.722656 -64.222656 37.566406 -64.265625 38.578125 -64.265625 C 39.585938 -64.265625 40.8125 -64.265625 42.25 -64.265625 C 43.6875 -64.179688 44.929688 -64.09375 45.984375 -64 C 47.035156 -63.914062 47.941406 -63.789062 48.703125 -63.625 C 53.765625 -62.78125 58.023438 -61.195312 61.484375 -58.875 C 64.941406 -56.5625 67.703125 -53.71875 69.765625 -50.34375 C 71.828125 -46.96875 73.34375 -43.210938 74.3125 -39.078125 C 75.28125 -34.953125 75.8125 -30.613281 75.90625 -26.0625 L 75.90625 -22.015625 L 53.640625 -21.890625 L 31.375 -21.890625 L 31.125 -20.875 C 31.039062 -20.03125 31.125 -18.425781 31.375 -16.0625 C 31.707031 -13.28125 32.503906 -10.960938 33.765625 -9.109375 C 35.035156 -7.253906 37.273438 -6.328125 40.484375 -6.328125 C 42.503906 -6.328125 44.296875 -6.75 45.859375 -7.59375 C 47.421875 -8.4375 48.535156 -9.867188 49.203125 -11.890625 C 49.628906 -12.898438 49.882812 -13.40625 49.96875 -13.40625 C 50.300781 -13.570312 54.429688 -13.65625 62.359375 -13.65625 C 70.367188 -13.65625 74.460938 -13.570312 74.640625 -13.40625 C 74.890625 -13.40625 74.59375 -12.394531 73.75 -10.375 C 72.226562 -6.488281 70.328125 -3.21875 68.046875 -0.5625 C 65.773438 2.09375 63.207031 4.238281 60.34375 5.875 C 57.476562 7.519531 54.335938 8.703125 50.921875 9.421875 C 47.503906 10.140625 43.851562 10.5 39.96875 10.5 C 36.507812 10.5 32.988281 10.117188 29.40625 9.359375 C 25.820312 8.597656 22.597656 7.289062 19.734375 5.4375 C 19.304688 5.1875 18.734375 4.742188 18.015625 4.109375 C 17.304688 3.472656 16.59375 2.773438 15.875 2.015625 C 15.15625 1.265625 14.457031 0.507812 13.78125 -0.25 C 13.113281 -1.007812 12.609375 -1.644531 12.265625 -2.15625 C 9.648438 -5.695312 7.734375 -9.847656 6.515625 -14.609375 C 5.296875 -19.378906 4.851562 -24.332031 5.1875 -29.46875 C 5.945312 -39.507812 8.941406 -47.5 14.171875 -53.4375 C 19.398438 -59.382812 26.691406 -62.953125 36.046875 -64.140625 Z M 43.515625 -47.9375 C 43.097656 -48.019531 42.65625 -48.082031 42.1875 -48.125 C 41.71875 -48.175781 41.273438 -48.203125 40.859375 -48.203125 C 37.316406 -48.203125 34.890625 -47.144531 33.578125 -45.03125 C 32.273438 -42.925781 31.457031 -40.269531 31.125 -37.0625 L 30.859375 -35.421875 L 51.109375 -35.421875 L 50.984375 -36.3125 C 50.898438 -38.082031 50.519531 -39.875 49.84375 -41.6875 C 49.164062 -43.5 48.445312 -44.910156 47.6875 -45.921875 C 46.84375 -47.015625 45.453125 -47.6875 43.515625 -47.9375 Z M 43.515625 -47.9375 "/></g></g></g></svg>