<svg width="22" height="22" viewBox="0 0 22 22" fill="none" xmlns="http://www.w3.org/2000/svg">
<g id="Group">
<path id="Vector" d="M11 22C17.0751 22 22 17.0751 22 11C22 4.92487 17.0751 0 11 0C4.92487 0 0 4.92487 0 11C0 17.0751 4.92487 22 11 22Z" fill="#627EEA"/>
<g id="Group_2">
<path id="Vector_2" d="M11.3424 2.75V8.84812L16.4966 11.1512L11.3424 2.75Z" fill="white" fill-opacity="0.602"/>
<path id="Vector_3" d="M11.3424 2.75L6.1875 11.1512L11.3424 8.84812V2.75Z" fill="#C2C2C5"/>
<path id="Vector_4" d="M11.3424 15.1031V19.2466L16.5 12.1111L11.3424 15.1031Z" fill="white" fill-opacity="0.602"/>
<path id="Vector_5" d="M11.3424 19.2466V15.1024L6.1875 12.1111L11.3424 19.2466Z" fill="#C2C2C5"/>
<path id="Vector_6" d="M11.3424 14.144L16.4966 11.1514L11.3424 8.84961V14.144Z" fill="white" fill-opacity="0.2"/>
<path id="Vector_7" d="M6.1875 11.1514L11.3424 14.144V8.84961L6.1875 11.1514Z" fill="white" fill-opacity="0.602"/>
</g>
</g>
</svg>
